<?xml version="1.0" standalone="no"?>
<!DOCTYPE svg PUBLIC "-//W3C//DTD SVG 20010904//EN"
 "http://www.w3.org/TR/2001/REC-SVG-20010904/DTD/svg10.dtd">
<svg version="1.0" xmlns="http://www.w3.org/2000/svg"
 width="1081.000000pt" height="637.000000pt" viewBox="0 0 1081.000000 637.000000"
 preserveAspectRatio="xMidYMid meet">

<g transform="translate(0.000000,637.000000) scale(0.100000,-0.100000)"
fill="#000000" stroke="none">
<path d="M0 3185 l0 -3185 5405 0 5405 0 0 3185 0 3185 -5405 0 -5405 0 0
-3185z m8327 2659 c19 -5 20 -8 8 -20 -7 -8 -23 -14 -33 -14 -11 0 -22 -5 -24
-10 -2 -6 -21 -13 -43 -16 -40 -5 -40 -5 -15 10 l25 16 -25 -5 c-22 -5 -26 -2
-28 19 -2 25 0 26 56 26 31 0 67 -3 79 -6z m503 2 c0 -22 -17 -36 -44 -36 -24
0 -27 3 -16 10 10 6 11 10 3 10 -7 0 -13 5 -13 10 0 6 16 10 35 10 19 0 35 -2
35 -4z m214 -17 c-3 -6 -3 -17 0 -26 5 -13 9 -12 26 7 11 13 20 27 20 32 0 4
20 8 45 8 33 0 45 -4 45 -15 0 -8 5 -15 10 -15 6 0 10 -7 10 -15 0 -18 -12
-19 -27 -4 -7 7 -17 8 -25 3 -7 -5 -21 -7 -31 -6 -10 2 -25 -2 -32 -8 -18 -15
-125 -23 -125 -10 0 6 5 10 11 10 6 0 5 6 -3 14 -8 8 -26 11 -46 8 -24 -3 -32
-1 -32 11 0 13 15 17 73 19 79 3 90 1 81 -13z m393 6 c5 -17 -34 -15 -48 2
-11 13 -9 14 16 11 16 -1 30 -8 32 -13z m211 -9 c0 -22 -6 -24 -51 -17 -11 1
14 26 33 34 8 3 16 6 16 6 1 1 2 -10 2 -23z m79 -1 c0 -8 -8 -15 -18 -15 -14
0 -18 13 -10 37 3 9 28 -11 28 -22z m293 16 c31 -6 36 -9 18 -10 -16 0 -28 -5
-28 -11 0 -5 -7 -7 -15 -4 -8 4 -17 -1 -21 -10 -4 -11 -14 -14 -34 -9 -20 3
-34 0 -45 -11 -21 -21 -71 -21 -79 0 -9 22 1 33 24 27 14 -4 20 0 20 10 0 23
80 32 160 18z m-2050 -16 c0 -8 5 -15 10 -15 6 0 10 7 10 15 0 8 9 15 20 15
11 0 20 -4 20 -10 0 -5 -7 -10 -15 -10 -8 0 -15 -7 -15 -15 0 -17 -16 -20 -25
-5 -3 6 -15 10 -26 10 -10 0 -19 7 -19 15 0 8 9 15 20 15 11 0 20 -7 20 -15z
m544 3 c5 -10 7 -10 12 0 3 6 20 11 37 11 18 -1 24 -3 15 -6 -20 -5 -25 -33
-6 -33 6 0 3 -6 -7 -14 -11 -8 -23 -12 -27 -10 -4 2 -9 0 -13 -6 -3 -5 -12
-10 -18 -10 -7 0 -6 4 3 10 13 8 12 10 -3 10 -13 0 -17 7 -15 30 2 31 12 39
22 18z m956 8 c0 -3 -4 -8 -10 -11 -5 -3 -10 -1 -10 4 0 6 5 11 10 11 6 0 10
-2 10 -4z m725 -6 c3 -5 11 -10 16 -10 6 0 7 5 3 12 -5 8 -2 9 10 5 10 -4 22
-7 27 -7 5 0 9 -4 9 -8 0 -5 -25 -10 -55 -11 -43 -1 -55 2 -55 14 0 17 35 21
45 5z m-1808 -16 c-3 -3 -12 -4 -19 -1 -8 3 -5 6 6 6 11 1 17 -2 13 -5z m73
-15 c0 -5 -10 -9 -21 -9 -18 0 -19 2 -9 15 12 15 30 12 30 -6z m-7043 -29 c-3
-11 -1 -22 4 -25 16 -10 -3 -35 -27 -35 -21 0 -24 4 -24 40 0 36 2 40 26 40
21 0 25 -4 21 -20z m427 -12 c4 6 12 12 19 12 8 0 8 -3 -1 -12 -7 -7 -8 -17
-1 -30 11 -20 -5 -26 -17 -7 -4 8 -9 7 -15 -2 -6 -9 -8 2 -8 31 1 35 3 39 8
20 5 -17 9 -21 15 -12z m43 -30 c-2 -13 -4 -3 -4 22 0 25 2 35 4 23 2 -13 2
-33 0 -45z m280 0 c-2 -13 -4 -3 -4 22 0 25 2 35 4 23 2 -13 2 -33 0 -45z
m233 22 c0 -36 -3 -40 -24 -40 -26 0 -39 20 -30 45 4 8 12 15 20 15 8 0 14 5
14 10 0 6 5 10 10 10 6 0 10 -18 10 -40z m637 -22 c-2 -13 -4 -3 -4 22 0 25 2
35 4 23 2 -13 2 -33 0 -45z m140 56 c-3 -3 -12 -4 -19 -1 -8 3 -5 6 6 6 11 1
17 -2 13 -5z m180 0 c-3 -3 -12 -4 -19 -1 -8 3 -5 6 6 6 11 1 17 -2 13 -5z
m37 -26 c4 6 12 12 19 12 8 0 8 -3 -1 -12 -7 -7 -8 -17 -1 -30 11 -20 -5 -26
-17 -7 -4 8 -9 7 -15 -2 -6 -9 -8 2 -8 31 1 35 3 39 8 20 5 -17 9 -21 15 -12z
m306 22 c0 -5 6 -10 14 -10 8 0 16 -7 20 -15 9 -25 -4 -45 -30 -45 -21 0 -24
4 -24 40 0 22 5 40 10 40 6 0 10 -4 10 -10z m67 4 c-3 -3 -12 -4 -19 -1 -8 3
-5 6 6 6 11 1 17 -2 13 -5z m20 -56 c-2 -13 -4 -3 -4 22 0 25 2 35 4 23 2 -13
2 -33 0 -45z m40 56 c-3 -3 -12 -4 -19 -1 -8 3 -5 6 6 6 11 1 17 -2 13 -5z
m120 0 c-3 -3 -12 -4 -19 -1 -8 3 -5 6 6 6 11 1 17 -2 13 -5z m100 0 c-3 -3
-12 -4 -19 -1 -8 3 -5 6 6 6 11 1 17 -2 13 -5z m5200 0 c-3 -3 -12 -4 -19 -1
-8 3 -5 6 6 6 11 1 17 -2 13 -5z m-7786 -58 c5 -6 9 1 9 17 0 15 5 27 10 27 6
0 10 -13 10 -30 0 -25 -4 -30 -25 -30 -22 0 -25 4 -24 33 1 21 3 25 6 12 3
-11 9 -24 14 -29z m71 32 c-5 -7 -12 -22 -15 -33 -3 -13 -5 -9 -6 13 -1 23 3
32 15 32 12 0 14 -3 6 -12z m58 0 c0 -9 3 -9 12 0 7 7 21 11 33 11 17 -1 18
-2 2 -6 -18 -5 -18 -5 0 -18 27 -21 4 -37 -47 -33 -48 3 -64 22 -28 34 22 7
22 7 3 15 -19 7 -19 8 3 8 12 1 22 -4 22 -11z m77 -35 c-3 -10 -5 -2 -5 17 0
19 2 27 5 18 2 -10 2 -26 0 -35z m75 35 c-5 -7 -12 -22 -15 -33 -3 -13 -5 -9
-6 13 -1 23 3 32 15 32 12 0 14 -3 6 -12z m66 -5 c2 -8 -6 -13 -20 -13 -22 -1
-22 -1 -4 -15 19 -15 19 -15 -1 -15 -25 0 -38 27 -22 47 14 16 40 14 47 -4z
m146 1 c13 -33 7 -45 -21 -42 -34 4 -41 24 -11 34 22 7 22 7 3 15 -19 7 -19 8
1 8 12 1 25 -6 28 -15z m96 -14 c0 -38 -19 -40 -21 -2 l-2 27 -4 -27 c-2 -16
-9 -28 -14 -28 -5 0 -10 12 -10 28 l-2 27 -4 -27 c-6 -37 -23 -36 -23 2 0 28
2 30 40 30 38 0 40 -2 40 -30z m94 14 c13 -33 7 -45 -21 -42 -34 4 -41 24 -11
34 22 7 22 7 3 15 -19 7 -19 8 1 8 12 1 25 -6 28 -15z m90 0 c13 -33 7 -45
-21 -42 -34 4 -41 24 -11 34 22 7 22 7 3 15 -19 7 -19 8 1 8 12 1 25 -6 28
-15z m65 -16 c-1 -22 -3 -26 -6 -13 -8 34 -23 41 -23 12 0 -15 -4 -27 -10 -27
-5 0 -10 14 -10 30 0 25 4 30 25 30 22 0 25 -4 24 -32z m28 -15 c-3 -10 -5 -2
-5 17 0 19 2 27 5 18 2 -10 2 -26 0 -35z m100 0 c-3 -10 -5 -2 -5 17 0 19 2
27 5 18 2 -10 2 -26 0 -35z m45 35 c-5 -7 -12 -22 -15 -33 -3 -13 -5 -9 -6 13
-1 23 3 32 15 32 12 0 14 -3 6 -12z m165 5 c-17 -4 -17 -5 -1 -17 21 -16 10
-36 -19 -35 -21 0 -21 1 -2 8 18 7 18 8 1 18 -23 13 -12 33 17 32 18 -1 19 -2
4 -6z m75 -4 c3 -8 10 -8 26 2 19 12 24 11 39 -4 16 -16 16 -18 0 -34 -15 -15
-20 -16 -39 -4 -16 10 -23 10 -26 2 -2 -6 -10 -11 -18 -11 -8 0 -14 -4 -14
-10 0 -5 -4 -10 -10 -10 -5 0 -10 18 -10 40 0 36 3 40 24 40 13 0 26 -5 28
-11z m137 -21 c-1 -22 -3 -26 -6 -13 -8 34 -23 41 -23 12 0 -15 -4 -27 -10
-27 -5 0 -10 14 -10 30 0 25 4 30 25 30 22 0 25 -4 24 -32z m47 23 c-17 -6
-17 -8 -3 -14 8 -3 21 1 27 9 16 18 34 18 50 -2 11 -12 10 -18 -4 -32 -13 -14
-20 -14 -36 -5 -12 8 -21 9 -25 3 -3 -6 -16 -10 -28 -9 -21 0 -21 1 -2 8 18 7
18 8 1 18 -23 13 -12 33 17 32 20 0 21 -1 3 -8z m116 -3 c-5 -7 -12 -22 -15
-33 -3 -13 -5 -9 -6 13 -1 23 3 32 15 32 12 0 14 -3 6 -12z m69 -32 c5 -6 9 1
9 17 0 15 5 27 10 27 6 0 10 -13 10 -30 0 -25 -4 -30 -25 -30 -22 0 -25 4 -24
33 1 21 3 25 6 12 3 -11 9 -24 14 -29z m86 -3 c-3 -10 -5 -2 -5 17 0 19 2 27
5 18 2 -10 2 -26 0 -35z m47 32 c-17 -14 -17 -16 -3 -27 16 -13 15 -38 -2 -38
-6 0 -7 5 -4 10 3 6 2 10 -3 10 -13 0 -23 27 -16 45 4 8 16 15 27 15 20 0 20
0 1 -15z m74 -2 c2 -8 -6 -13 -20 -13 -22 -1 -22 -1 -4 -15 19 -15 19 -15 -1
-15 -25 0 -38 27 -22 47 14 16 40 14 47 -4z m34 5 c-5 -7 -12 -22 -15 -33 -3
-13 -5 -9 -6 13 -1 23 3 32 15 32 12 0 14 -3 6 -12z m25 -35 c-3 -10 -5 -2 -5
17 0 19 2 27 5 18 2 -10 2 -26 0 -35z m126 35 c4 -10 8 -9 16 2 5 8 13 12 16
9 8 -9 -13 -59 -25 -59 -9 0 -30 40 -30 56 0 10 19 3 23 -8z m95 -5 c2 -8 -6
-13 -20 -13 -22 -1 -22 -1 -4 -15 19 -15 19 -15 -1 -15 -25 0 -38 27 -22 47
14 16 40 14 47 -4z m34 5 c-5 -7 -12 -22 -15 -33 -3 -13 -5 -9 -6 13 -1 23 3
32 15 32 12 0 14 -3 6 -12z m66 -5 c2 -8 -6 -13 -20 -13 -22 -1 -22 -1 -4 -15
19 -15 19 -15 -1 -15 -25 0 -38 27 -22 47 14 16 40 14 47 -4z m89 -30 c-3 -10
-5 -2 -5 17 0 19 2 27 5 18 2 -10 2 -26 0 -35z m60 0 c-3 -10 -5 -2 -5 17 0
19 2 27 5 18 2 -10 2 -26 0 -35z m90 40 c-17 -4 -17 -5 -1 -17 21 -16 10 -36
-19 -35 -19 0 -19 1 -4 7 16 7 16 9 -3 25 -15 13 -22 14 -24 5 -12 -39 -14
-40 -15 -12 -1 31 0 32 42 31 23 0 34 -2 24 -4z m30 -40 c-3 -10 -5 -2 -5 17
0 19 2 27 5 18 2 -10 2 -26 0 -35z m72 15 c-1 -22 -3 -26 -6 -13 -8 34 -23 41
-23 12 0 -15 -4 -27 -10 -27 -5 0 -10 14 -10 30 0 25 4 30 25 30 22 0 25 -4
24 -32z m28 -15 c-3 -10 -5 -2 -5 17 0 19 2 27 5 18 2 -10 2 -26 0 -35z m52
26 c-9 -17 -8 -23 2 -30 10 -6 6 -9 -14 -9 -25 0 -27 2 -16 21 9 17 8 23 -2
30 -10 6 -6 9 14 9 25 0 27 -2 16 -21z m3964 14 c-13 -2 -33 -2 -45 0 -13 2
-3 4 22 4 25 0 35 -2 23 -4z m1262 -15 c6 -4 2 -8 -7 -8 -10 0 -18 7 -18 17 0
9 3 12 8 7 4 -5 12 -12 17 -16z m855 7 c0 -8 -7 -15 -15 -15 -8 0 -15 7 -15
15 0 8 7 15 15 15 8 0 15 -7 15 -15z m-1195 -5 c-3 -5 -23 -10 -43 -10 -28 0
-33 3 -22 10 20 13 73 13 65 0z m-6417 -7 c-10 -2 -26 -2 -35 0 -10 3 -2 5 17
5 19 0 27 -2 18 -5z m5480 0 c-10 -2 -28 -2 -40 0 -13 2 -5 4 17 4 22 1 32 -1
23 -4z m1775 0 c-7 -2 -21 -2 -30 0 -10 3 -4 5 12 5 17 0 24 -2 18 -5z m-1833
-48 c0 -9 -9 -15 -25 -15 -24 0 -32 10 -18 23 12 13 43 7 43 -8z m140 6 c0 -5
-8 -12 -17 -14 -10 -3 3 -5 30 -6 40 -1 47 -4 47 -21 0 -17 -7 -20 -38 -20
-34 0 -40 4 -55 35 l-17 35 25 0 c14 0 25 -4 25 -9z m833 -19 c-7 -27 -19 -28
-26 -3 -3 13 1 21 12 24 21 4 21 5 14 -21z m157 24 c0 -11 -19 -15 -25 -6 -3
5 1 10 9 10 9 0 16 -2 16 -4z m1012 -3 c-12 -2 -20 -8 -17 -13 3 -4 -7 -11
-23 -15 -36 -9 -35 -9 -44 14 -7 20 -4 21 50 20 31 -1 47 -4 34 -6z m173 -15
c-1 -43 -35 -69 -35 -28 0 13 -7 20 -19 20 -21 0 -34 13 -24 24 3 3 23 6 43 6
31 0 36 -3 35 -22z m-1865 -13 c0 -8 7 -15 15 -15 20 0 22 -125 2 -137 -8 -4
-17 -22 -20 -40 -5 -27 -3 -32 16 -35 18 -2 23 -10 25 -45 l3 -43 -50 0 c-50
0 -51 1 -51 30 0 23 -4 30 -20 30 -15 0 -20 7 -20 25 0 16 -6 25 -15 25 -12 0
-15 -13 -15 -55 l0 -55 -51 0 -50 0 3 48 c3 43 5 47 28 45 25 -2 25 -2 -2 9
-27 11 -28 15 -28 80 0 52 4 70 15 74 8 4 15 10 15 15 0 5 -7 9 -15 9 -15 0
-21 31 -8 43 3 4 55 7 115 7 89 0 108 -3 108 -15z m330 -25 l0 -40 -75 0 c-73
0 -75 -1 -75 -25 0 -24 3 -25 55 -25 l55 0 0 -35 0 -35 -55 0 c-52 0 -55 -1
-55 -25 0 -24 2 -25 75 -25 l75 0 0 -40 0 -40 -125 0 -125 0 0 165 0 165 125
0 125 0 0 -40z m140 -10 c0 -43 3 -50 20 -50 15 0 20 7 20 25 0 18 5 25 20 25
15 0 20 7 20 25 0 23 4 25 45 25 l45 0 0 -45 c0 -38 -3 -45 -20 -45 -15 0 -20
-7 -20 -25 0 -20 -5 -25 -25 -25 -20 0 -25 -5 -25 -25 0 -18 5 -25 20 -25 15
0 20 -7 20 -25 0 -20 5 -25 25 -25 23 0 25 -4 25 -45 l0 -45 -45 0 c-41 0 -45
2 -45 25 0 18 -5 25 -19 25 -12 0 -21 8 -23 21 -2 12 -12 25 -23 29 -19 7 -20
4 -17 -46 l4 -54 -51 0 -51 0 0 165 0 165 50 0 50 0 0 -50z m310 -75 l0 -125
75 0 75 0 0 -40 0 -40 -120 0 -120 0 0 165 0 165 45 0 45 0 0 -125z m400 100
c0 -20 5 -25 25 -25 l25 0 0 -140 0 -140 -45 0 -45 0 0 46 0 45 -42 -3 c-43
-3 -43 -3 -46 -45 -3 -43 -3 -43 -43 -43 l-40 0 3 48 c2 33 7 46 16 44 8 -1
11 2 7 8 -3 6 -11 8 -16 5 -5 -4 -9 31 -9 84 0 90 0 91 25 91 20 0 25 5 25 25
0 25 1 25 80 25 79 0 80 0 80 -25z m190 0 c0 -18 5 -25 20 -25 15 0 20 -7 20
-25 0 -18 5 -25 20 -25 15 0 20 7 20 25 0 18 5 25 20 25 15 0 20 7 20 25 0 23
3 25 50 25 l50 0 0 -165 0 -165 -50 0 -50 0 0 75 c0 60 -3 75 -15 75 -8 0 -15
-9 -15 -20 0 -16 -7 -20 -30 -20 -23 0 -30 4 -30 20 0 11 -7 20 -15 20 -12 0
-15 -15 -15 -75 l0 -75 -45 0 -45 0 0 50 c0 33 4 50 13 51 10 0 10 2 0 6 -9 3
-13 36 -13 114 l0 109 45 0 c41 0 45 -2 45 -25z m70 -5 c0 -5 -5 -10 -11 -10
-5 0 -7 5 -4 10 3 6 8 10 11 10 2 0 4 -4 4 -10z m-1916 -36 c3 -8 2 -12 -4 -9
-6 3 -10 10 -10 16 0 14 7 11 14 -7z m70 1 c3 -8 1 -15 -4 -15 -6 0 -10 7 -10
15 0 8 2 15 4 15 2 0 6 -7 10 -15z m1346 -60 c0 -8 -4 -15 -10 -15 -5 0 -10 7
-10 15 0 8 5 15 10 15 6 0 10 -7 10 -15z m-1340 -15 c-6 -11 -15 -18 -21 -15
-5 4 -9 1 -9 -6 0 -8 -4 -8 -15 1 -27 22 -18 40 20 40 33 0 35 -2 25 -20z
m2160 5 c-32 -18 -37 -18 -44 0 -4 12 3 15 32 15 l37 -1 -25 -14z m96 -68 c8
3 14 0 14 -6 0 -6 -16 -11 -35 -11 -40 0 -44 13 -17 50 l17 25 3 -32 c2 -23 7
-30 18 -26z m-8726 -39 c0 -50 1 -52 16 -30 8 12 24 22 35 22 23 0 24 -8 2
-32 -15 -17 -15 -20 6 -48 l22 -30 -24 0 c-14 0 -31 10 -40 23 l-16 22 0 -22
c-1 -16 -7 -23 -21 -23 -18 0 -20 7 -20 85 0 78 2 85 20 85 17 0 20 -7 20 -52z
m130 -33 c0 -78 -2 -85 -20 -85 -18 0 -20 7 -20 85 0 78 2 85 20 85 18 0 20
-7 20 -85z m-316 59 c20 -20 20 -33 0 -55 -15 -17 -14 -20 5 -48 26 -35 26
-41 4 -41 -10 0 -30 14 -45 32 l-27 33 -1 -32 c0 -26 -4 -33 -20 -33 -18 0
-20 7 -20 80 l0 80 44 0 c27 0 51 -6 60 -16z m762 -41 l17 -58 16 58 c12 48
19 57 37 57 l22 0 -26 -80 c-24 -74 -29 -81 -51 -78 -21 3 -28 12 -43 63 -10
33 -21 68 -24 78 -4 12 0 17 15 17 16 0 24 -12 37 -57z m-638 -5 c7 -7 12 -20
12 -30 0 -14 -8 -18 -36 -18 -23 0 -33 -4 -28 -11 3 -6 17 -8 31 -4 20 5 24 2
21 -12 -4 -24 -60 -30 -82 -8 -20 21 -21 59 0 79 18 19 65 21 82 4z m302 -7
c5 -11 10 -36 10 -55 l0 -35 -46 2 c-54 2 -77 24 -55 51 8 9 22 16 32 16 11 0
19 5 19 11 0 7 -10 9 -25 5 -14 -4 -25 -3 -25 2 0 29 74 31 90 3z m128 7 c8
-7 12 -7 12 1 0 6 11 11 25 11 29 0 45 -26 45 -74 0 -29 -4 -36 -19 -36 -16 0
-20 8 -23 37 -4 52 -28 56 -28 4 0 -34 -3 -41 -19 -41 -16 0 -20 8 -23 37 -4
52 -28 56 -28 4 0 -34 -3 -41 -20 -41 -18 0 -20 7 -20 54 l0 55 43 -1 c23 0
48 -5 55 -10z m386 -10 c23 -32 20 -38 -19 -38 -19 0 -35 -5 -35 -11 0 -7 11
-9 31 -5 25 5 30 3 27 -12 -4 -21 -62 -29 -84 -11 -17 14 -19 70 -2 87 20 20
65 14 82 -10z m106 7 c0 -7 -9 -15 -20 -18 -15 -4 -20 -14 -20 -41 0 -29 -4
-36 -20 -36 -18 0 -20 7 -20 54 l0 55 40 -1 c25 0 40 -5 40 -13z m5593 -2 c-7
-2 -21 -2 -30 0 -10 3 -4 5 12 5 17 0 24 -2 18 -5z m54 -9 c-3 -3 -12 -4 -19
-1 -8 3 -5 6 6 6 11 1 17 -2 13 -5z m-22 -14 c11 -5 15 -9 8 -9 -12 -1 -12
-18 0 -38 10 -16 -6 -24 -48 -21 -34 2 -52 28 -20 28 9 0 15 9 15 25 0 26 11
30 45 15z m72 4 c-3 -3 -12 -4 -19 -1 -8 3 -5 6 6 6 11 1 17 -2 13 -5z m843
-66 c0 -6 -7 -5 -15 2 -8 7 -15 17 -15 22 0 6 7 5 15 -2 8 -7 15 -17 15 -22z
m934 16 c9 -23 8 -24 -13 -24 -14 0 -18 5 -14 20 6 24 19 26 27 4z m-2971 -49
c4 -8 2 -17 -3 -20 -5 -3 -6 -13 -3 -22 5 -13 8 -12 15 6 5 16 15 21 30 19 28
-4 36 -28 9 -28 -28 0 -27 -17 2 -23 12 -2 3 -4 -20 -4 -32 0 -44 5 -52 21
-10 21 -10 21 -10 -1 -2 -44 -21 -23 -21 22 0 41 2 45 24 45 13 0 26 -7 29
-15z m97 -5 c0 -14 5 -18 18 -13 15 6 15 5 3 -10 -10 -13 -11 -20 -2 -31 9
-11 6 -13 -14 -13 -23 0 -25 3 -25 43 0 24 5 44 10 44 6 0 10 -9 10 -20z m47
-47 c-2 -16 -4 -5 -4 22 0 28 2 40 4 28 2 -13 2 -35 0 -50z m236 35 l14 -33 7
33 c7 29 26 46 26 22 0 -19 -29 -80 -38 -80 -7 0 -32 64 -32 84 0 16 11 3 23
-26z m792 3 c-7 -12 -65 -11 -65 1 0 4 16 8 36 8 19 0 33 -4 29 -9z m143 -5
c-13 -14 -28 -12 -28 5 0 5 9 9 20 9 17 0 19 -2 8 -14z m102 -26 c0 -31 -3
-38 -15 -34 -8 4 -15 1 -15 -5 0 -16 -17 -13 -40 6 -28 24 -25 33 11 33 26 0
31 3 26 20 -4 15 0 20 14 20 15 0 19 -7 19 -40z m969 35 c-3 -2 -14 -6 -25 -8
-10 -1 -24 -6 -30 -10 -7 -4 -17 0 -24 8 -11 13 -6 15 35 15 27 0 46 -2 44 -5z
m327 -2 c-7 -7 -77 -5 -85 2 -2 3 17 5 44 5 27 0 45 -3 41 -7z m394 0 c0 -5
-28 -8 -62 -9 -38 0 -63 -5 -66 -12 -3 -11 -72 -18 -72 -8 0 2 -3 11 -6 20 -5
14 7 16 100 16 58 0 106 -3 106 -7z m127 -7 c-4 -9 1 -17 11 -19 12 -3 11 -5
-5 -6 -17 -1 -23 -7 -23 -24 0 -12 -9 -28 -20 -35 -19 -12 -20 -10 -20 43 0
55 0 55 31 55 23 0 30 -4 26 -14z m143 -21 c0 -19 -5 -35 -11 -35 -6 0 -9 7
-5 15 3 8 1 15 -5 15 -6 0 -7 5 -4 11 4 6 0 9 -10 7 -10 -2 -20 3 -22 10 -3 8
6 12 26 12 29 0 31 -3 31 -35z m-3162 -8 c3 -26 1 -28 -24 -25 -35 4 -44 27
-13 35 22 6 22 7 3 15 -16 6 -15 7 6 5 19 -1 26 -8 28 -30z m100 1 c2 -16 -1
-28 -7 -28 -6 0 -11 12 -11 26 0 14 -4 23 -10 19 -5 -3 -10 -15 -10 -26 0 -10
-4 -19 -10 -19 -5 0 -10 12 -10 27 0 29 -15 22 -23 -12 -3 -13 -5 -9 -6 12 -1
32 0 33 42 30 38 -2 42 -5 45 -29z m163 20 c0 -10 2 -10 6 0 2 6 14 12 26 12
16 0 18 -3 9 -12 -7 -7 -12 -20 -12 -30 0 -10 -4 -18 -10 -18 -5 0 -10 7 -10
15 0 9 -9 15 -25 15 -31 0 -32 -8 -2 -20 l22 -9 -23 0 c-24 -1 -38 20 -28 44
7 18 46 20 47 3z m1284 2 c3 -5 2 -10 -4 -10 -5 0 -13 5 -16 10 -3 6 -2 10 4
10 5 0 13 -4 16 -10z m-556 -19 c7 -5 10 -14 7 -20 -10 -15 -36 -14 -36 2 0 9
-3 8 -9 -2 -5 -8 -16 -11 -29 -7 -12 4 -30 2 -42 -4 -20 -11 -26 -4 -12 17 11
18 98 28 121 14z m501 -16 c0 -20 5 -25 25 -25 l25 0 0 -141 0 -140 -42 3
c-43 3 -43 3 -46 46 -2 28 -8 42 -18 42 -8 0 -14 5 -14 12 0 9 -3 9 -11 1 -6
-6 -18 -9 -25 -6 -11 4 -14 -7 -14 -46 l0 -51 -45 0 -45 0 0 44 c0 36 4 45 23
51 l22 8 -22 4 c-22 4 -23 9 -23 89 0 83 0 84 25 84 20 0 25 5 25 25 0 25 1
25 80 25 79 0 80 0 80 -25z m190 -85 c0 -81 -3 -110 -12 -110 -8 0 -5 -7 6
-15 13 -10 44 -15 88 -15 65 0 68 -1 68 -24 0 -47 -22 -56 -136 -56 l-105 0 2
165 1 165 44 0 44 0 0 -110z m400 85 c0 -20 5 -25 25 -25 l25 0 0 -140 0 -140
-45 0 -45 0 0 51 c0 43 -3 50 -16 45 -9 -3 -26 -6 -39 -6 -21 0 -24 -5 -27
-42 -3 -43 -3 -43 -45 -46 l-43 -3 0 140 0 141 25 0 c20 0 25 5 25 25 0 25 1
25 80 25 79 0 80 0 80 -25z m190 5 c0 -13 7 -20 20 -20 13 0 20 -7 20 -20 0
-11 5 -20 10 -20 6 0 10 -9 10 -20 0 -11 7 -20 15 -20 12 0 15 13 15 60 l0 60
45 0 45 0 0 -165 0 -165 -45 0 c-45 0 -45 0 -45 35 0 28 -4 35 -20 35 -15 0
-20 7 -20 26 0 14 -4 23 -10 19 -5 -3 -10 3 -10 14 0 29 -30 27 -31 -1 0 -13
0 -47 1 -75 l1 -53 -51 0 -51 0 3 47 c3 41 6 48 28 54 l25 7 -27 1 -28 1 0
110 0 110 50 0 c43 0 50 -3 50 -20z m390 -20 c0 -29 -4 -40 -15 -40 -12 0 -15
-16 -15 -85 0 -69 3 -85 15 -85 11 0 15 -11 15 -40 l0 -40 -80 0 -80 0 0 39
c0 31 4 40 20 44 19 5 20 11 17 89 -3 67 -7 84 -21 86 -11 2 -16 14 -16 38 l0
34 80 0 80 0 0 -40z m-325 20 c3 -5 1 -10 -4 -10 -6 0 -11 5 -11 10 0 6 2 10
4 10 3 0 8 -4 11 -10z m-475 -10 c0 -5 -5 -10 -11 -10 -5 0 -7 5 -4 10 3 6 8
10 11 10 2 0 4 -4 4 -10z m940 0 c0 -5 -4 -10 -9 -10 -6 0 -13 5 -16 10 -3 6
1 10 9 10 9 0 16 -4 16 -10z m-1785 -40 c3 -5 1 -10 -4 -10 -6 0 -11 5 -11 10
0 6 2 10 4 10 3 0 8 -4 11 -10z m730 0 c-3 -5 -14 -10 -23 -10 -15 0 -15 2 -2
10 20 13 33 13 25 0z m-7571 -36 c19 -7 21 -55 4 -72 -7 -7 -20 -12 -30 -12
-15 0 -18 8 -18 45 0 46 8 53 44 39z m336 -40 c0 -44 -1 -45 -27 -42 -20 2
-29 9 -31 26 -5 30 -22 28 -22 -3 0 -14 -4 -25 -10 -25 -5 0 -10 14 -10 31 0
25 4 30 23 29 47 -4 67 0 67 15 0 8 2 15 5 15 3 0 5 -21 5 -46z m237 -21 c-2
-16 -4 -5 -4 22 0 28 2 40 4 28 2 -13 2 -35 0 -50z m100 0 c-2 -16 -4 -5 -4
22 0 28 2 40 4 28 2 -13 2 -35 0 -50z m128 57 c-3 -5 -12 -10 -18 -10 -7 0 -6
4 3 10 19 12 23 12 15 0z m859 -5 c-4 -8 -2 -15 4 -15 6 0 12 4 14 9 2 5 9 3
16 -5 7 -8 8 -14 2 -14 -13 0 -13 -37 0 -43 6 -3 5 -4 -2 -3 -7 1 -14 12 -16
24 -5 30 -22 28 -22 -3 0 -14 -4 -25 -9 -25 -12 0 -19 56 -9 74 11 20 29 21
22 1z m967 -18 c29 -8 22 -51 -8 -55 -21 -3 -23 0 -22 45 1 26 3 41 6 32 2
-10 13 -19 24 -22z m500 0 c29 -8 22 -51 -8 -55 -21 -3 -23 0 -22 45 1 26 3
41 6 32 2 -10 13 -19 24 -22z m206 -34 c-2 -16 -4 -5 -4 22 0 28 2 40 4 28 2
-13 2 -35 0 -50z m203 22 c0 -41 -2 -45 -24 -45 -26 0 -39 20 -30 45 4 8 15
15 25 15 10 0 19 7 19 15 0 8 2 15 5 15 3 0 5 -20 5 -45z m453 3 c5 6 13 12
19 12 7 0 6 -6 -2 -15 -10 -12 -10 -18 0 -30 8 -9 9 -15 2 -15 -6 0 -14 5 -18
11 -4 8 -9 7 -15 -2 -5 -9 -8 5 -8 36 1 41 3 45 8 20 4 -20 9 -26 14 -17z
m217 28 c0 -7 9 -16 21 -19 32 -9 22 -51 -13 -55 -27 -3 -28 -2 -28 42 0 25 5
46 10 46 6 0 10 -6 10 -14z m100 -31 c0 -25 -4 -45 -10 -45 -5 0 -10 20 -10
45 0 25 5 45 10 45 6 0 10 -20 10 -45z m-3905 25 c-3 -5 0 -10 7 -11 10 0 10
-2 1 -6 -7 -2 -13 -13 -13 -23 0 -10 6 -21 13 -23 7 -4 6 -6 -4 -6 -11 -1 -18
9 -21 27 -5 34 0 52 13 52 6 0 7 -4 4 -10z m2396 3 c4 -46 2 -72 -6 -70 -12 4
-23 47 -17 65 5 13 22 17 23 5z m892 0 c-7 -2 -19 -2 -25 0 -7 3 -2 5 12 5 14
0 19 -2 13 -5z m2962 -3 c-27 -12 -35 -12 -35 0 0 6 12 10 28 9 24 0 25 -1 7
-9z m103 -16 c0 -18 -7 -28 -19 -31 -17 -5 -23 -15 -21 -35 1 -3 -5 -9 -13
-12 -11 -4 -15 2 -15 24 0 21 5 30 18 31 15 1 15 2 0 6 -16 4 -16 6 0 24 24
28 50 25 50 -7z m-6711 -41 c-3 -10 -5 -2 -5 17 0 19 2 27 5 18 2 -10 2 -26 0
-35z m43 37 c-13 -9 -13 -12 3 -21 22 -13 13 -29 -16 -28 -20 0 -20 1 -4 8 17
6 17 8 3 20 -18 15 -12 31 12 31 15 0 15 -2 2 -10z m58 3 c-27 -7 -30 -33 -5
-43 22 -9 22 -9 1 -9 -12 -1 -25 6 -28 15 -8 20 11 44 33 43 14 -1 14 -2 -1
-6z m77 -23 c0 -18 -6 -26 -23 -28 -24 -4 -38 18 -28 44 3 9 15 14 28 12 17
-2 23 -10 23 -28z m259 15 c8 -23 -4 -45 -25 -45 -11 0 -22 7 -25 15 -9 23 3
45 25 45 10 0 21 -7 25 -15z m70 0 c8 -22 -4 -45 -24 -45 -10 0 -21 -8 -23
-17 -3 -10 -5 3 -6 30 -1 43 1 47 23 47 13 0 26 -7 30 -15z m69 -32 c6 2 14
14 18 28 6 21 7 21 8 -8 1 -29 -2 -33 -24 -33 -22 0 -25 4 -24 33 2 31 2 31 6
4 3 -16 10 -26 16 -24z m100 0 c6 2 14 14 18 28 6 21 7 21 8 -8 1 -29 -2 -33
-24 -33 -22 0 -25 4 -24 33 2 31 2 31 6 4 3 -16 10 -26 16 -24z m97 13 c0 -38
-20 -60 -47 -53 -14 4 -13 5 5 6 27 1 29 17 2 24 -11 3 -20 14 -20 24 0 26 8
33 37 33 20 0 23 -5 23 -34z m30 9 c0 -14 5 -25 10 -25 6 0 10 11 10 25 0 14
5 25 10 25 6 0 10 -13 10 -30 0 -25 -4 -30 -24 -30 -23 0 -36 16 -36 46 0 8 5
14 10 14 6 0 10 -11 10 -25z m104 9 c9 -24 7 -44 -4 -44 -5 0 -10 11 -10 25 0
14 -4 25 -10 25 -5 0 -10 -11 -10 -25 0 -14 -4 -25 -10 -25 -5 0 -10 14 -10
30 0 25 4 30 24 30 13 0 27 -7 30 -16z m41 -34 c8 0 16 12 18 28 4 25 4 24 6
-6 1 -29 -2 -33 -21 -30 -17 2 -23 10 -24 28 -1 22 0 22 3 3 2 -13 10 -23 18
-23z m71 26 c-14 -23 -14 -25 2 -29 9 -3 4 -5 -12 -6 -28 -1 -28 0 -13 17 21
23 21 29 0 35 -11 3 -6 5 11 6 28 1 28 1 12 -23z m51 -23 c6 -2 13 8 15 24 3
28 4 28 9 -5 5 -31 4 -33 -20 -30 -21 2 -26 9 -28 33 -2 27 -1 28 5 6 4 -14
13 -26 19 -28z m191 15 c2 -16 -1 -28 -7 -28 -6 0 -11 11 -11 25 0 34 -20 32
-21 -2 l-2 -28 -4 28 c-5 33 -25 31 -34 -4 -6 -22 -7 -21 -8 8 -1 32 0 33 42
30 38 -2 42 -5 45 -29z m32 2 c0 -16 -4 -30 -10 -30 -5 0 -10 14 -10 30 0 17
5 30 10 30 6 0 10 -13 10 -30z m59 -2 c-2 -32 -2 -32 -6 -5 -5 33 -25 31 -34
-4 -6 -21 -7 -21 -8 9 -1 28 2 32 24 32 22 0 25 -4 24 -32z m69 15 c2 -8 -5
-13 -17 -13 -28 0 -27 -17 2 -23 l22 -4 -23 -2 c-25 -1 -38 20 -28 45 7 18 37
15 44 -3z m36 2 c-19 -15 -19 -15 0 -30 18 -13 18 -15 3 -15 -10 0 -20 7 -23
15 -9 22 3 45 23 45 15 0 15 -2 -3 -15z m58 3 c-5 -7 -12 -22 -15 -33 -3 -13
-5 -9 -6 13 -1 23 3 32 15 32 12 0 14 -3 6 -12z m62 -4 c12 -31 6 -44 -19 -44
-29 0 -35 27 -8 37 15 6 15 7 -3 14 -18 7 -18 8 2 8 12 1 25 -6 28 -15z m151
7 c-18 -7 -18 -8 -1 -18 21 -12 13 -33 -12 -32 -14 0 -13 2 3 9 18 7 19 8 3
15 -26 10 -22 35 5 34 20 0 21 -1 2 -8z m52 -38 c6 -2 13 8 16 24 4 26 4 26 6
-5 1 -29 -2 -33 -21 -30 -18 2 -23 10 -25 33 -2 27 -1 28 5 6 4 -14 13 -26 19
-28z m92 15 c-2 -32 -2 -32 -6 -5 -5 33 -25 31 -34 -4 -6 -21 -7 -21 -8 9 -1
28 2 32 24 32 22 0 25 -4 24 -32z m44 -15 c6 2 14 14 18 28 6 21 7 21 8 -8 1
-29 -2 -33 -24 -33 -22 0 -25 4 -24 33 2 31 2 31 6 4 3 -16 10 -26 16 -24z
m75 40 c-27 -7 -30 -33 -5 -43 22 -9 22 -9 1 -9 -12 -1 -25 6 -28 15 -8 20 11
44 33 43 14 -1 14 -2 -1 -6z m49 -40 c6 -2 13 8 16 24 4 26 4 26 6 -5 1 -29
-2 -33 -21 -30 -18 2 -23 10 -25 33 -2 27 -1 28 5 6 4 -14 13 -26 19 -28z m92
14 c-2 -31 -2 -31 -6 -4 -5 33 -25 31 -34 -4 -7 -22 -7 -22 -8 6 -1 26 3 31
24 33 22 2 25 -2 24 -31z m44 -14 c6 2 14 14 18 28 6 21 7 21 8 -8 1 -29 -2
-33 -24 -33 -22 0 -25 4 -24 33 2 31 2 31 6 4 3 -16 10 -26 16 -24z m72 23
c-15 -23 -15 -25 2 -29 11 -3 7 -5 -11 -6 -28 -1 -28 -1 -12 23 14 23 14 25
-2 29 -10 3 -6 5 11 6 27 1 27 0 12 -23z m50 -26 c8 0 16 12 18 28 4 25 4 24
6 -6 1 -29 -2 -33 -21 -30 -17 2 -23 10 -24 28 -1 22 0 22 3 3 2 -13 10 -23
18 -23z m129 31 c4 14 10 19 12 12 3 -7 -1 -22 -10 -34 l-15 -22 -11 27 c-14
37 -12 46 4 17 l13 -23 7 23z m40 -15 c-7 -28 -24 -36 -24 -11 0 8 5 15 10 15
6 0 10 8 10 17 0 9 2 14 5 11 4 -3 3 -17 -1 -32z m66 20 c0 -8 -10 -16 -22
-19 -23 -4 -23 -4 2 -15 25 -11 25 -11 2 -11 -24 -1 -38 20 -28 44 7 19 46 20
46 1z m145 5 c-18 -7 -18 -8 -1 -18 21 -12 13 -33 -12 -32 -14 0 -13 2 3 9 18
7 19 8 3 15 -26 10 -22 35 5 34 20 0 21 -1 2 -8z m32 -38 c-3 -10 -5 -2 -5 17
0 19 2 27 5 18 2 -10 2 -26 0 -35z m111 30 c2 -8 -5 -13 -17 -13 -28 0 -27
-17 2 -23 l22 -4 -23 -2 c-25 -1 -38 20 -28 45 7 18 37 15 44 -3z m66 1 c9
-24 7 -44 -4 -44 -5 0 -10 11 -10 25 0 14 -4 25 -10 25 -5 0 -10 -11 -10 -25
0 -14 -4 -25 -10 -25 -5 0 -10 14 -10 30 0 25 4 30 24 30 13 0 27 -7 30 -16z
m23 -31 c-3 -10 -5 -2 -5 17 0 19 2 27 5 18 2 -10 2 -26 0 -35z m63 38 c0 -5
-7 -15 -16 -22 -14 -12 -14 -14 3 -20 14 -6 12 -8 -11 -8 -29 -1 -29 -1 -10
20 16 17 16 22 4 29 -12 8 -10 10 8 10 12 0 22 -4 22 -9z m27 -38 c-3 -10 -5
-2 -5 17 0 19 2 27 5 18 2 -10 2 -26 0 -35z m146 0 c6 2 14 14 18 28 6 21 7
21 8 -8 1 -29 -2 -33 -24 -33 -22 0 -25 4 -24 33 2 31 2 31 6 4 3 -16 10 -26
16 -24z m117 17 c0 -23 -5 -30 -19 -30 -29 0 -34 17 -10 33 19 14 20 15 2 20
-15 4 -14 5 5 6 18 1 22 -4 22 -29z m90 0 c0 -23 -5 -30 -19 -30 -29 0 -34 17
-10 33 19 14 20 15 2 20 -15 4 -14 5 5 6 18 1 22 -4 22 -29z m66 -3 c1 -26 1
-26 -3 -2 -5 31 -25 28 -34 -6 -6 -21 -7 -20 -8 9 -1 29 2 33 22 30 16 -2 22
-10 23 -31z m134 2 c0 -26 -3 -30 -22 -27 -30 4 -35 28 -7 35 22 6 22 7 3 14
-18 7 -17 8 4 8 18 1 22 -4 22 -30z m105 1 c0 -18 -6 -26 -23 -28 -24 -4 -38
18 -28 44 3 9 15 14 28 12 17 -2 23 -10 23 -28z m64 -2 c-2 -32 -2 -32 -6 -5
-5 33 -25 31 -34 -4 -6 -21 -7 -21 -8 9 -1 28 2 32 24 32 22 0 25 -4 24 -32z
m69 15 c2 -8 -5 -13 -17 -13 -28 0 -27 -17 2 -23 l22 -4 -23 -2 c-25 -1 -38
20 -28 45 7 18 37 15 44 -3z m75 7 c-28 -11 -30 -30 -4 -37 20 -5 18 -43 -2
-43 -6 0 -7 3 -4 7 4 3 0 14 -9 24 -21 24 -10 59 19 58 l22 0 -22 -9z m34 -37
c-3 -10 -5 -2 -5 17 0 19 2 27 5 18 2 -10 2 -26 0 -35z m127 31 c12 -31 6 -44
-19 -44 -29 0 -35 27 -8 37 15 6 15 7 -3 14 -18 7 -18 8 2 8 12 1 25 -6 28
-15z m38 4 c-5 -7 -12 -22 -15 -33 -3 -13 -5 -9 -6 13 -1 23 3 32 15 32 12 0
14 -3 6 -12z m66 -20 c3 -24 0 -28 -22 -28 -30 0 -36 27 -9 37 15 6 15 7 -3
15 -16 6 -15 7 6 5 19 -1 26 -8 28 -29z m102 2 c0 -16 -4 -30 -10 -30 -5 0
-10 14 -10 30 0 17 5 30 10 30 6 0 10 -13 10 -30z m60 0 c0 -16 -4 -30 -10
-30 -5 0 -10 14 -10 30 0 17 5 30 10 30 6 0 10 -13 10 -30z m75 20 c-18 -7
-19 -8 -2 -15 25 -10 21 -35 -5 -34 -19 0 -20 2 -5 7 16 7 16 9 -3 25 -27 23
-30 22 -30 -8 0 -14 -4 -25 -10 -25 -5 0 -10 13 -10 29 0 28 2 30 43 29 30 0
36 -3 22 -8z m45 -20 c0 -16 -4 -30 -10 -30 -5 0 -10 14 -10 30 0 17 5 30 10
30 6 0 10 -13 10 -30z m64 14 c9 -24 7 -44 -4 -44 -5 0 -10 11 -10 25 0 14 -4
25 -10 25 -5 0 -10 -11 -10 -25 0 -14 -4 -25 -10 -25 -5 0 -10 14 -10 30 0 25
4 30 24 30 13 0 27 -7 30 -16z m23 -31 c-3 -10 -5 -2 -5 17 0 19 2 27 5 18 2
-10 2 -26 0 -35z m63 38 c0 -5 -7 -15 -16 -22 -14 -12 -14 -14 3 -20 14 -6 12
-8 -11 -8 -29 -1 -29 -1 -10 20 16 17 16 22 4 29 -12 8 -10 10 8 10 12 0 22
-4 22 -9z m3730 -7 c0 -8 -4 -12 -10 -9 -5 3 -10 10 -10 16 0 5 5 9 10 9 6 0
10 -7 10 -16z m-1435 -4 c3 -5 15 -10 26 -10 10 0 19 5 19 10 0 6 5 10 11 10
8 0 8 -4 0 -14 -7 -9 -30 -14 -57 -14 -42 0 -58 11 -31 21 19 8 25 8 32 -3z
m182 -12 c-3 -8 -6 -5 -6 6 -1 11 2 17 5 13 3 -3 4 -12 1 -19z m1433 12 c0 -5
-2 -10 -4 -10 -3 0 -8 5 -11 10 -3 6 -1 10 4 10 6 0 11 -4 11 -10z m390 -6 c0
-2 -9 -4 -20 -4 -11 0 -20 4 -20 9 0 5 9 7 20 4 11 -3 20 -7 20 -9z m-7740
-39 c0 -8 -4 -15 -10 -15 -5 0 -7 7 -4 15 4 8 8 15 10 15 2 0 4 -7 4 -15z
m7445 6 c18 -7 17 -8 -7 -14 -14 -4 -33 -10 -42 -13 -10 -4 -16 -1 -16 9 0 24
29 32 65 18z m-1545 -61 c0 -5 -10 -10 -22 -10 -19 0 -20 2 -8 10 19 13 30 13
30 0z m1463 -22 c-3 -25 -2 -29 6 -18 12 18 26 7 18 -14 -10 -25 -37 -7 -37
23 0 23 7 41 15 41 1 0 0 -15 -2 -32z m85 17 c10 -10 -4 -14 -26 -8 -28 7 -29
23 -1 18 12 -3 24 -7 27 -10z m-1625 -10 c-3 -9 -8 -14 -10 -11 -3 3 -2 9 2
15 9 16 15 13 8 -4z m97 -11 c0 -14 -4 -23 -9 -20 -5 3 -7 15 -4 26 7 28 13
25 13 -6z m1643 9 c-3 -7 -8 -13 -12 -13 -4 0 -8 6 -8 13 0 8 6 14 13 14 7 0
10 -6 7 -14z m-1709 -19 c3 -8 2 -13 -3 -9 -5 3 -12 -1 -14 -7 -3 -7 -6 -3 -6
10 -1 25 14 30 23 6z m-100 -9 c14 -6 17 -5 12 3 -5 8 0 12 13 12 28 0 35 -17
12 -29 -24 -13 -74 -14 -67 -2 3 5 -3 11 -14 14 -11 3 -23 1 -26 -4 -3 -5 -10
-6 -16 -3 -16 10 14 25 42 21 14 -2 34 -8 44 -12z m341 -45 c3 -5 1 -10 -4
-10 -6 0 -11 5 -11 10 0 6 2 10 4 10 3 0 8 -4 11 -10z m-605 -55 c0 -9 -6 -12
-15 -9 -8 4 -15 10 -15 15 0 5 7 9 15 9 8 0 15 -7 15 -15z m690 -1 c0 -8 -13
-12 -37 -10 -33 2 -40 -2 -50 -26 -7 -15 -17 -28 -23 -28 -6 0 -18 -7 -26 -15
-10 -9 -32 -14 -57 -14 l-42 2 35 7 c19 4 28 8 20 9 -12 1 -13 3 -1 10 7 5 10
14 7 20 -7 11 -1 15 46 25 19 4 26 11 21 21 -4 13 4 15 51 14 37 -1 56 -6 56
-15z m296 10 c27 -5 59 -46 46 -59 -12 -12 -34 -4 -28 10 4 12 -8 15 -72 16
-42 1 -81 1 -85 0 -5 -1 -6 3 -2 9 3 5 1 10 -4 10 -6 0 -11 -2 -11 -4 0 -2 -3
-11 -6 -19 -4 -11 2 -17 18 -20 13 -3 -8 -4 -46 -3 -46 1 -71 5 -74 14 -2 8 8
12 32 12 25 0 36 5 36 15 0 11 17 15 73 18 39 1 77 4 83 5 6 1 24 -1 40 -4z
m445 -16 c1 -18 2 -19 6 -5 4 13 13 17 44 15 21 -2 39 -7 39 -11 0 -5 -8 -7
-17 -6 -34 3 -54 -1 -49 -10 3 -4 -3 -16 -14 -26 -18 -16 -25 -17 -60 -6 -21
6 -42 17 -46 23 -4 7 -3 8 4 4 8 -5 12 0 12 13 0 12 8 21 23 24 49 9 57 7 58
-15z m313 13 c3 -5 -5 -11 -19 -13 -14 -3 -25 -1 -25 3 0 22 -19 6 -25 -21 -5
-24 -12 -30 -32 -30 -13 0 -31 7 -39 15 -14 13 -14 15 1 15 9 0 23 7 32 15 8
9 18 13 21 10 4 -3 0 -10 -8 -15 -13 -8 -13 -10 1 -10 9 0 19 9 22 20 4 14 14
20 35 20 17 0 33 -4 36 -9z m243 -8 c2 -5 18 -8 36 -5 l32 4 -35 -19 c-24 -13
-41 -16 -53 -11 -9 5 -22 6 -27 3 -11 -7 -14 28 -4 38 10 9 47 2 51 -10z m343
7 c0 -5 -5 -10 -11 -10 -5 0 -7 5 -4 10 3 6 8 10 11 10 2 0 4 -4 4 -10z
m-1120 -9 c0 -6 -7 -8 -15 -5 -8 4 -15 1 -15 -6 0 -10 -4 -9 -16 1 -13 10 -17
10 -24 0 -4 -8 -13 -10 -19 -7 -23 14 -10 22 39 25 29 1 50 -2 50 -8z m1050 5
c0 -2 -11 -6 -25 -8 -13 -3 -22 -1 -19 3 5 9 44 13 44 5z m-507 -23 c-7 -2
-19 -2 -25 0 -7 3 -2 5 12 5 14 0 19 -2 13 -5z m-1585 -20 c2 -8 -6 -13 -22
-13 -17 0 -26 5 -26 16 0 19 41 16 48 -3z m1417 3 c12 -11 5 -14 -41 -15 -33
0 -53 3 -49 9 3 5 13 6 22 3 11 -4 14 -3 9 5 -10 17 42 15 59 -2z m595 2 c0
-9 3 -8 10 2 5 8 12 11 17 7 4 -5 1 -12 -7 -17 -20 -13 -30 -12 -30 1 0 5 -4
7 -10 4 -5 -3 -10 -1 -10 4 0 6 7 11 15 11 8 0 15 -6 15 -12z m110 -14 c0 -8
-7 -14 -15 -14 -15 0 -21 21 -9 33 10 9 24 -2 24 -19z m-2240 -84 c0 -9 -8
-12 -26 -9 -4 0 -10 -5 -14 -12 -6 -9 -14 -6 -31 10 l-23 21 47 0 c26 0 47 -4
47 -10z m440 0 c0 -5 -2 -10 -4 -10 -3 0 -8 5 -11 10 -3 6 -1 10 4 10 6 0 11
-4 11 -10z m45 0 c3 -5 2 -10 -4 -10 -5 0 -13 5 -16 10 -3 6 -2 10 4 10 5 0
13 -4 16 -10z m1130 0 c3 -5 1 -10 -5 -10 -6 0 -8 -4 -5 -10 11 -17 -11 -11
-35 10 l-23 20 31 0 c17 0 34 -4 37 -10z m538 -3 c-2 -4 -3 -14 -3 -22 0 -20
-24 -19 -41 1 -7 9 -22 20 -34 25 -14 6 -5 8 30 6 28 -1 49 -5 48 -10z m-3172
-417 c29 -6 58 -15 64 -21 7 -7 1 -7 -18 0 -20 8 -917 11 -2960 12 -1613 1
-2918 5 -2902 9 47 12 5752 12 5816 0z m-5927 -62 c-16 -18 -32 -37 -36 -42
-5 -6 -8 -7 -8 -3 0 8 60 77 68 77 3 0 -7 -15 -24 -32z m6042 0 l29 -33 -32
29 c-18 17 -33 31 -33 33 0 8 8 1 36 -29z m62 -328 c2 -129 -1 -253 -6 -275
-7 -29 -10 36 -11 237 -1 152 -4 285 -7 295 -5 15 -4 15 8 -2 10 -15 14 -81
16 -255z m-6141 -345 c18 -32 65 -73 103 -89 19 -8 28 -15 20 -16 -25 0 -94
49 -118 84 -33 48 -42 120 -42 335 0 315 14 309 20 -9 3 -190 9 -292 17 -305z
m2483 545 c16 -16 20 -33 20 -85 0 -108 10 -105 -308 -105 -261 0 -269 1 -288
21 -14 16 -19 36 -19 84 0 48 5 68 19 84 19 20 27 21 288 21 255 0 269 -1 288
-20z m-1410 -91 l0 -70 -42 3 c-42 3 -43 4 -46 41 -3 35 -1 38 27 43 24 5 31
12 31 30 0 15 6 24 15 24 12 0 15 -15 15 -71z m-194 9 c9 -29 19 -59 22 -65 2
-7 -3 -13 -12 -13 -9 0 -19 7 -22 15 -4 8 -15 15 -25 15 -11 0 -22 -7 -25 -15
-6 -16 -34 -21 -34 -6 0 7 14 52 35 109 2 6 13 12 24 12 15 0 24 -13 37 -52z
m5778 36 c9 -8 16 -26 16 -39 0 -56 -71 -73 -99 -24 -13 24 -13 29 2 53 20 30
57 35 81 10z m55 -6 l8 -23 7 23 c4 12 14 22 22 22 17 0 17 -8 -1 -40 -8 -14
-14 -35 -15 -47 0 -14 -6 -23 -15 -23 -8 0 -15 8 -15 19 0 10 -7 35 -15 55
-14 32 -14 36 0 36 9 0 19 -10 24 -22z m91 -23 c0 -33 4 -45 15 -45 11 0 15
12 15 45 0 33 4 45 15 45 11 0 15 -11 15 -43 0 -47 -13 -67 -45 -67 -32 0 -45
20 -45 67 0 32 4 43 15 43 11 0 15 -12 15 -45z m130 13 l20 -33 0 33 c0 22 5
32 15 32 12 0 15 -13 15 -55 0 -65 -19 -74 -50 -22 l-20 32 0 -32 c0 -23 -5
-33 -15 -33 -12 0 -15 13 -15 55 0 65 19 74 50 23z m90 0 c0 -18 4 -39 9 -47
15 -23 31 -2 31 40 0 28 4 39 15 39 11 0 15 -11 15 -36 0 -63 -26 -87 -74 -68
-12 4 -16 20 -16 55 0 27 5 49 10 49 6 0 10 -15 10 -32z m206 21 c3 -6 2 -15
-4 -21 -7 -7 -7 -16 0 -28 18 -29 3 -50 -37 -50 l-35 0 0 55 0 55 34 0 c19 0
38 -5 42 -11z m93 -31 c11 -37 16 -43 42 -45 36 -3 37 5 2 33 -24 19 -26 24
-14 38 17 20 71 22 71 2 0 -9 -7 -12 -20 -9 -11 3 -20 0 -20 -5 0 -6 9 -16 20
-22 23 -12 27 -48 6 -56 -8 -3 -12 -13 -9 -25 4 -13 0 -19 -11 -19 -10 0 -15
4 -11 9 9 15 -23 40 -45 34 -11 -3 -20 0 -20 6 0 6 -9 11 -20 11 -11 0 -20 -4
-20 -10 0 -5 -8 -10 -19 -10 -18 0 -18 2 2 55 25 69 49 74 66 13z m141 -2 c0
-39 3 -45 23 -48 18 -2 25 5 38 42 22 62 45 60 70 -4 10 -28 16 -52 14 -55 -3
-2 -16 2 -30 9 -20 10 -28 11 -37 2 -7 -7 -34 -12 -60 -12 l-48 0 0 55 c0 42
3 55 15 55 11 0 15 -12 15 -44z m230 34 c0 -5 -7 -10 -15 -10 -11 0 -15 -12
-15 -45 0 -33 -4 -45 -15 -45 -11 0 -15 12 -15 45 0 33 -4 45 -15 45 -8 0 -15
5 -15 10 0 6 20 10 45 10 25 0 45 -4 45 -10z m-7130 -35 l0 -35 -65 0 -65 0 0
35 0 35 65 0 65 0 0 -35z m410 -1 c0 -3 -7 -12 -15 -20 -8 -9 -15 -26 -15 -40
0 -15 -6 -24 -15 -24 -11 0 -15 12 -15 45 0 43 1 45 30 45 17 0 30 -3 30 -6z
m198 -42 l3 -43 -38 3 c-30 2 -39 7 -41 24 -2 16 4 25 25 32 l28 10 -28 1
c-17 1 -26 5 -22 12 4 5 21 9 38 7 30 -3 32 -6 35 -46z m-858 -12 l0 -30 125
0 125 0 0 -130 0 -130 -184 0 -184 0 -4 153 c-3 83 -3 155 -1 160 2 4 31 7 64
7 59 0 59 0 59 -30z m4504 -62 c6 -4 26 -8 44 -8 l34 0 -31 -26 c-28 -23 -30
-30 -25 -65 l7 -40 -34 20 -35 20 -33 -20 -34 -20 6 38 c6 32 2 42 -20 65
l-27 28 31 0 c34 0 58 18 69 52 6 21 7 21 22 -8 8 -16 20 -32 26 -36z m4351 5
c30 -21 54 -40 54 -43 0 -6 -105 -80 -113 -80 -3 0 -6 36 -6 80 0 44 3 80 6
80 3 0 30 -17 59 -37z m-2527 -180 c-1 -44 -2 -45 -5 -10 -2 20 -9 37 -14 37
-6 0 -7 5 -4 10 14 23 25 7 23 -37z m100 23 c2 -10 -6 -25 -20 -34 l-23 -17
30 -6 30 -7 -32 -1 c-38 -1 -41 8 -13 34 26 24 26 49 0 42 -11 -3 -17 -1 -14
4 9 16 38 6 42 -15z m62 -21 c0 -25 -4 -45 -10 -45 -5 0 -10 16 -10 35 0 21
-5 35 -12 35 -9 0 -8 4 2 10 26 17 30 11 30 -35z m90 0 c0 -25 -4 -45 -10 -45
-5 0 -10 16 -10 35 0 21 -5 35 -12 35 -9 0 -8 4 2 10 26 17 30 11 30 -35z m58
-2 c-1 -44 -2 -45 -5 -10 -2 20 -9 37 -14 37 -6 0 -7 5 -4 10 14 23 25 7 23
-37z m-6013 8 c8 -26 -5 -53 -24 -49 -29 6 -27 68 3 68 8 0 17 -8 21 -19z
m109 -6 c14 -13 26 -21 26 -18 0 4 3 4 6 1 9 -9 -15 -48 -29 -48 -8 0 -8 3 2
9 8 5 11 16 6 31 l-7 22 -15 -21 c-18 -27 -50 -27 -58 -1 -7 22 10 50 30 50 7
0 24 -11 39 -25z m-216 -8 c4 -20 -25 -34 -40 -19 -15 15 -1 44 19 40 10 -2
19 -11 21 -21z m292 -27 c5 0 11 10 13 23 4 19 4 18 6 -5 1 -22 -4 -28 -19
-28 -15 0 -20 6 -19 28 2 23 2 24 6 5 2 -13 8 -23 13 -23z m76 12 c1 -18 1
-19 -3 -2 -6 27 -21 25 -33 -2 -8 -22 -9 -22 -9 5 -1 24 3 28 22 25 15 -2 22
-10 23 -26z m42 21 c-10 -2 -18 -11 -18 -18 0 -7 8 -16 18 -18 15 -4 15 -5 0
-6 -9 0 -20 4 -23 9 -11 17 3 40 22 39 17 -1 17 -2 1 -6z m42 -33 c5 0 11 10
13 23 4 19 4 18 6 -5 1 -22 -4 -28 -19 -28 -15 0 -20 6 -19 28 2 23 2 24 6 5
2 -13 8 -23 13 -23z m5560 0 c0 -5 -4 -10 -10 -10 -5 0 -10 5 -10 10 0 6 5 10
10 10 6 0 10 -4 10 -10z m-740 -165 c-21 -34 -93 -85 -120 -85 -8 0 10 12 38
26 36 18 60 38 75 64 12 21 23 37 25 35 3 -2 -6 -20 -18 -40z m-160 -89 c8 -2
-1292 -4 -2890 -4 -1598 0 -2897 2 -2888 6 18 7 5751 5 5778 -2z m1550 -416
c0 -5 -7 -7 -15 -4 -20 8 -19 -6 2 -21 21 -16 10 -45 -17 -45 -11 0 -20 4 -20
10 0 5 7 7 15 4 20 -8 19 6 -2 21 -21 16 -10 45 17 45 11 0 20 -4 20 -10z m30
-30 c0 -22 -4 -40 -10 -40 -5 0 -10 18 -10 40 0 22 5 40 10 40 6 0 10 -18 10
-40z m178 33 c-10 -2 -18 -9 -18 -14 0 -5 8 -10 18 -10 16 -1 16 -2 0 -6 -10
-2 -18 -11 -18 -18 0 -7 8 -16 18 -18 10 -3 6 -5 -10 -6 -25 -1 -28 2 -28 34
0 24 -5 35 -15 35 -10 0 -15 -11 -15 -35 0 -19 -4 -35 -10 -35 -5 0 -10 15
-10 34 0 29 -3 34 -25 34 -29 0 -33 -13 -8 -26 23 -14 9 -42 -22 -42 -14 0
-25 4 -25 9 0 5 9 7 20 4 26 -7 26 9 0 25 -11 7 -17 18 -14 27 5 12 24 15 93
14 47 -1 78 -3 69 -6z m59 -13 c3 -11 9 -20 13 -20 4 0 10 9 13 20 9 35 27 22
27 -20 0 -22 -4 -40 -10 -40 -5 0 -10 6 -10 13 0 8 -3 7 -10 -3 -10 -16 -12
-15 -28 15 -11 19 -11 19 -12 -2 0 -13 -4 -23 -10 -23 -5 0 -10 18 -10 40 0
30 4 40 16 40 9 0 18 -9 21 -20z m157 -11 c7 -39 1 -49 -30 -49 -21 0 -24 4
-24 40 0 35 3 40 24 40 18 0 25 -7 30 -31z m36 -9 c0 -22 -4 -40 -10 -40 -5 0
-10 18 -10 40 0 22 5 40 10 40 6 0 10 -18 10 -40z m30 6 c0 -24 5 -36 18 -39
10 -3 6 -5 -10 -6 -26 -1 -28 2 -28 39 0 22 5 40 10 40 6 0 10 -15 10 -34z
m100 26 c0 -5 -10 -8 -22 -8 -18 1 -23 -5 -23 -23 0 -13 6 -26 14 -29 10 -3
12 0 8 12 -4 10 -1 16 8 16 8 0 15 -9 15 -20 0 -23 -38 -28 -58 -8 -27 27 -6
68 35 68 13 0 23 -4 23 -8z m30 -32 c0 -22 -4 -40 -10 -40 -5 0 -10 18 -10 40
0 22 5 40 10 40 6 0 10 -18 10 -40z m70 30 c0 -5 -7 -7 -15 -4 -20 8 -19 -13
2 -24 21 -12 10 -42 -17 -42 -11 0 -20 4 -20 10 0 5 7 7 15 4 20 -8 19 6 -2
21 -21 16 -10 45 17 45 11 0 20 -4 20 -10z m30 -30 c0 -22 -4 -40 -10 -40 -5
0 -10 18 -10 40 0 22 5 40 10 40 6 0 10 -18 10 -40z m-7962 -44 c4 -31 -10
-46 -45 -46 -20 0 -23 5 -23 41 0 39 1 40 33 37 27 -3 33 -7 35 -32z m34 2 c2
-18 8 -33 13 -33 6 0 11 15 13 33 3 26 7 32 28 32 13 0 24 -5 24 -11 0 -8 5
-7 15 1 9 7 17 11 20 9 5 -6 -18 -79 -25 -79 -3 0 -12 17 -20 38 l-14 37 -6
-35 c-4 -27 -10 -36 -29 -38 -28 -4 -41 12 -41 51 0 38 18 34 22 -5z m148 -3
c0 -19 5 -35 10 -35 6 0 10 16 10 35 0 24 5 35 15 35 19 0 20 -40 2 -64 -22
-31 -52 -16 -55 27 -2 21 1 37 7 37 6 0 11 -16 11 -35z m117 19 c3 -9 1 -19
-6 -23 -9 -6 -8 -11 4 -21 13 -11 15 -8 15 24 0 20 5 36 10 36 6 0 10 -16 10
-35 0 -19 4 -35 9 -35 11 0 21 25 21 51 0 10 5 19 10 19 14 0 12 -56 -2 -68
-21 -17 -87 -12 -98 7 -9 15 -9 14 -10 -1 0 -10 -4 -18 -10 -18 -5 0 -10 18
-10 40 0 36 2 40 25 40 14 0 28 -7 32 -16z m113 -19 c0 -48 33 -50 46 -3 14
47 38 47 52 1 13 -43 9 -51 -14 -32 -13 11 -18 11 -21 2 -3 -8 -21 -13 -44
-13 -39 0 -39 0 -39 40 0 22 5 40 10 40 6 0 10 -16 10 -35z m176 24 c3 -6 1
-16 -5 -22 -7 -7 -7 -14 1 -24 6 -7 8 -17 4 -21 -4 -4 -14 2 -22 12 -12 17
-14 18 -14 3 0 -9 -4 -17 -10 -17 -5 0 -10 18 -10 40 0 36 3 40 24 40 14 0 28
-5 32 -11z m5676 -201 c-5 -38 15 -36 23 2 9 40 19 38 33 -6 9 -30 8 -33 -4
-23 -11 9 -18 8 -30 -2 -14 -11 -18 -11 -29 4 -16 22 -22 21 -28 0 -3 -10 -5
-1 -6 20 -1 34 1 38 22 35 18 -2 21 -8 19 -30z m89 -20 c-9 -20 -10 -18 -10
17 0 31 2 36 9 23 6 -10 7 -25 1 -40z m48 15 c0 -35 -1 -36 -10 -14 -5 14 -7
31 -5 38 10 24 16 13 15 -24z m126 2 c0 -25 -4 -30 -25 -32 -14 -1 -18 0 -7 3
20 6 23 24 5 25 -10 0 -10 2 0 6 17 7 15 21 -5 27 -11 3 -8 4 7 3 20 -2 24 -7
25 -32z m50 24 c4 -5 -1 -19 -10 -29 -15 -17 -15 -19 2 -23 11 -3 8 -5 -11 -6
-28 -1 -28 -1 -12 24 18 28 21 39 6 30 -5 -3 -10 -1 -10 4 0 14 27 14 35 0z
m78 1 c-23 -10 -33 -50 -12 -50 6 0 9 7 5 15 -4 10 1 15 14 15 11 0 20 7 20
15 0 28 37 17 43 -12 7 -38 -2 -45 -59 -41 -38 2 -50 7 -52 21 -6 31 6 47 35
46 27 0 27 -1 6 -9z m-273 -39 c0 -6 -4 -13 -10 -16 -5 -3 -10 1 -10 9 0 9 5
16 10 16 6 0 10 -4 10 -9z m-140 -146 c0 -19 -4 -35 -8 -35 -4 0 -6 16 -4 35
2 19 6 35 8 35 2 0 4 -16 4 -35z m250 0 c0 -19 -4 -35 -9 -35 -10 0 -21 57
-13 65 14 13 22 2 22 -30z m86 6 c1 -13 7 -27 13 -31 7 -4 -8 -7 -34 -7 -26 0
-41 3 -34 8 7 4 13 18 15 31 1 12 3 24 3 26 1 2 9 2 19 0 10 -2 17 -13 18 -27z
m79 10 c8 -26 -4 -51 -26 -51 -14 0 -19 7 -19 28 0 16 3 32 7 35 12 13 32 7
38 -12z m87 -8 c4 -33 27 -44 25 -11 0 13 -6 26 -12 30 -5 4 -1 8 12 8 17 0
21 -6 21 -35 l0 -36 -41 5 c-23 3 -46 5 -50 5 -10 1 24 61 34 61 4 0 9 -12 11
-27z m98 -8 c0 -19 -4 -35 -9 -35 -10 0 -21 57 -13 65 14 13 22 2 22 -30z
m-550 -10 c0 -18 -5 -25 -20 -25 -24 0 -27 18 -4 27 13 5 13 7 2 14 -10 7 -9
9 5 9 12 0 17 -8 17 -25z m37 12 c8 10 13 14 10 8 -2 -5 -7 -19 -11 -30 -6
-16 -9 -17 -16 -5 -6 8 -9 22 -9 30 1 10 3 9 6 -3 5 -18 5 -18 20 0z m53 -12
c0 -18 -5 -25 -20 -25 -24 0 -27 18 -4 27 13 5 13 7 2 14 -10 7 -9 9 5 9 12 0
17 -8 17 -25z m-5899 -17 c0 -10 2 -10 6 0 2 6 11 12 19 12 11 0 11 -5 2 -25
-10 -21 -9 -29 5 -43 16 -15 17 -15 17 11 0 15 5 27 10 27 6 0 10 -13 10 -30
0 -25 -4 -30 -23 -30 -13 0 -28 5 -35 12 -9 9 -12 9 -12 0 0 -7 -7 -12 -15
-12 -11 0 -15 12 -15 45 0 33 4 45 15 45 8 0 15 -6 16 -12z m219 2 c0 -5 -7
-7 -15 -4 -23 9 -18 -14 6 -27 15 -8 24 -8 32 0 16 16 44 14 51 -4 4 -10 -1
-15 -14 -15 -11 0 -20 -4 -20 -10 0 -5 9 -8 21 -7 26 4 42 29 26 39 -7 5 -1 8
16 8 29 0 34 -9 15 -28 -10 -10 -10 -15 2 -22 10 -6 -16 -9 -77 -9 -51 1 -93
5 -93 10 0 5 7 6 15 3 20 -8 19 5 -1 27 -9 10 -14 25 -11 34 7 16 47 21 47 5z
m455 -20 c0 -14 6 -25 13 -24 31 3 36 6 17 14 -18 8 -17 9 8 9 22 1 27 -3 27
-24 0 -17 6 -25 17 -25 13 0 14 3 5 12 -20 20 -14 38 13 38 16 0 25 6 25 15 0
8 7 15 15 15 10 0 15 -11 15 -35 0 -33 1 -34 20 -23 18 12 19 13 2 20 -13 5
-10 7 11 7 24 1 27 -3 27 -29 0 -31 0 -31 -49 -27 -41 2 -51 0 -54 -15 -3 -10
-10 -18 -17 -18 -6 0 -9 4 -5 9 10 17 -14 23 -85 23 l-70 0 0 45 c0 44 0 44
33 41 27 -2 32 -7 32 -28z m295 -16 c0 -45 0 -45 -32 -42 -26 2 -34 8 -36 26
-3 17 2 25 17 29 12 3 21 12 21 19 0 8 7 14 15 14 11 0 15 -12 15 -46z m70 16
c0 -20 -5 -30 -15 -30 -10 0 -15 10 -15 30 0 20 5 30 15 30 10 0 15 -10 15
-30z m-923 -7 c-16 -4 -17 -6 -3 -16 19 -15 10 -67 -12 -67 -8 0 -12 3 -9 7 4
3 2 12 -4 20 -9 10 -7 13 7 13 17 0 17 1 -1 13 -22 17 -12 37 18 36 18 -1 19
-2 4 -6z m298 -23 c0 -18 -6 -26 -23 -28 -24 -4 -38 18 -28 44 3 9 15 14 28
12 17 -2 23 -10 23 -28z m76 18 c0 -10 2 -10 6 0 9 23 33 13 34 -15 l2 -28 4
28 c6 38 33 36 33 -3 0 -29 -1 -30 -50 -29 -47 2 -50 3 -51 28 l-2 26 -4 -27
c-6 -39 -33 -37 -33 2 0 27 3 30 30 30 17 0 30 -5 31 -12z m509 -18 c0 -16 -4
-30 -10 -30 -5 0 -10 14 -10 30 0 17 5 30 10 30 6 0 10 -13 10 -30z m5213 23
c-7 -2 -21 -2 -30 0 -10 3 -4 5 12 5 17 0 24 -2 18 -5z m-6443 -72 l0 -38 -52
-6 c-41 -5 -54 -3 -61 8 -4 8 -15 15 -22 15 -8 0 -15 9 -15 19 0 14 11 21 48
29 26 5 59 10 75 11 25 1 27 -2 27 -38z m1270 29 c0 -5 -7 -10 -15 -10 -8 0
-15 5 -15 10 0 6 7 10 15 10 8 0 15 -4 15 -10z m4732 -41 c-25 -10 -27 -39 -3
-47 10 -3 12 0 8 12 -4 9 -2 16 3 16 6 0 10 -9 10 -21 0 -15 -5 -20 -22 -17
-41 6 -30 69 11 67 10 0 8 -3 -7 -10z m98 -21 c0 -39 18 -36 23 5 4 31 4 31 5
-5 2 -32 -1 -38 -18 -38 -11 0 -20 7 -20 15 0 19 -14 19 -34 -1 -15 -14 -16
-12 -16 20 0 32 2 35 30 34 26 -1 30 -5 30 -30z m157 13 c-2 -10 -1 -25 4 -32
6 -10 9 -11 9 -1 0 6 8 12 18 13 14 0 14 2 -3 9 -19 8 -19 9 3 9 12 1 22 -5
23 -11 0 -10 2 -10 6 0 2 6 11 12 19 12 8 0 14 5 14 10 0 6 5 10 10 10 6 0 10
-10 10 -22 0 -14 3 -18 8 -12 4 7 38 12 80 12 70 1 72 0 72 -24 0 -30 -20 -32
-21 -1 -2 21 -2 21 -6 1 -3 -16 -12 -21 -38 -22 -19 -1 -37 3 -40 8 -3 6 -12
10 -18 10 -7 0 -6 -4 3 -10 12 -8 11 -10 -7 -10 -13 0 -23 6 -24 13 0 10 -2
10 -6 0 -3 -9 -26 -13 -63 -13 -46 0 -61 4 -69 18 -10 16 -10 16 -11 0 0 -10
-4 -18 -10 -18 -5 0 -10 16 -10 35 0 31 3 35 26 35 21 0 25 -4 21 -19z m352 2
c-3 -32 1 -44 12 -37 6 3 8 16 5 29 -5 19 -2 22 25 23 26 1 29 -1 18 -14 -10
-12 -10 -20 -1 -35 10 -16 9 -19 -3 -19 -8 0 -15 6 -16 13 0 10 -2 10 -6 0 -7
-19 -40 -16 -52 5 -10 16 -10 16 -11 0 0 -10 -4 -18 -10 -18 -5 0 -10 16 -10
35 0 31 3 35 26 35 18 0 25 -5 23 -17z m122 8 c-11 -7 -9 -13 8 -30 20 -20 41
-28 41 -15 0 4 -8 13 -17 20 -15 10 -16 15 -5 26 10 10 17 10 32 1 14 -9 20
-9 22 -1 3 7 12 9 22 5 12 -5 16 -15 14 -34 -3 -28 -4 -28 -78 -29 -41 -1 -67
1 -57 3 21 5 23 23 2 23 -15 0 -21 21 -8 33 3 4 13 7 22 7 13 0 13 -2 2 -9z
m179 -1 c-13 -9 -13 -11 0 -19 8 -6 19 -6 25 -2 5 5 52 9 104 9 52 0 88 -4 81
-8 -10 -6 -10 -8 1 -12 30 -10 -5 -28 -52 -27 -40 2 -49 5 -49 21 0 10 -4 18
-10 18 -5 0 -10 -9 -10 -19 0 -18 -7 -20 -62 -19 -35 1 -55 4 -45 6 17 4 17 5
2 22 -19 21 -13 40 13 40 15 0 15 -2 2 -10z m-6663 -16 c-3 -3 -12 -4 -19 -1
-8 3 -5 6 6 6 11 1 17 -2 13 -5z m8 -24 c3 -5 15 -10 26 -10 21 0 26 -15 8
-26 -8 -4 -7 -9 2 -15 9 -5 -5 -8 -36 -6 -51 2 -65 16 -51 53 6 16 42 19 51 4z
m115 -25 c0 -32 -2 -35 -30 -35 -25 0 -30 4 -30 25 0 17 5 25 18 25 14 0 15
-2 2 -10 -11 -7 -12 -10 -2 -10 8 0 16 9 19 20 9 32 23 23 23 -15z m58 12 c14
5 15 3 5 -7 -9 -10 -9 -17 -2 -26 8 -10 5 -12 -10 -11 -17 1 -21 8 -20 37 1
19 3 27 6 18 3 -11 10 -15 21 -11z m130 0 c14 6 15 4 4 -9 -17 -21 -2 -30 21
-13 14 10 15 14 5 18 -8 4 -7 6 5 6 12 1 17 -7 17 -23 0 -22 -4 -24 -40 -23
-39 1 -40 2 -39 37 1 19 3 27 6 18 3 -11 10 -15 21 -11z m178 -20 c11 4 12 8
4 13 -7 4 9 8 34 8 42 1 46 -1 46 -23 0 -31 -20 -33 -21 -2 l-2 22 -4 -23 c-4
-20 -10 -22 -44 -20 -38 2 -39 3 -38 37 2 30 3 31 6 9 3 -19 9 -25 19 -21z
m435 21 c0 -13 3 -17 6 -10 2 6 14 12 25 12 14 0 19 -6 16 -22 -2 -18 -10 -23
-35 -25 -31 -1 -33 1 -33 33 0 37 20 48 21 12z m85 2 c8 0 14 -10 14 -25 0
-18 -5 -25 -20 -25 -17 0 -20 6 -19 38 0 20 3 31 6 25 2 -7 11 -13 19 -13z
m134 5 c0 -13 4 -14 20 -5 11 6 20 9 21 8 5 -18 3 -58 -3 -58 -4 0 -8 9 -8 20
0 20 -11 26 -23 13 -4 -3 -3 -11 3 -18 7 -8 -2 -12 -30 -13 -40 -3 -63 14 -35
24 14 6 14 9 3 16 -9 7 -7 8 10 5 15 -3 22 0 22 9 0 8 5 14 10 14 6 0 10 -7
10 -15z m100 5 c-13 -9 -13 -10 0 -10 10 0 11 -3 4 -8 -7 -4 -14 -16 -17 -27
-4 -17 -5 -16 -7 5 l-2 25 -8 -25 -8 -25 -1 24 c-1 23 23 50 44 51 6 0 3 -5
-5 -10z m120 -25 c0 -28 -4 -35 -20 -35 -15 0 -20 7 -20 25 0 16 6 25 15 25 8
0 15 5 15 10 0 6 2 10 5 10 3 0 5 -16 5 -35z m51 13 c0 -13 3 -17 6 -10 2 6
11 12 18 12 7 0 16 6 18 13 3 6 6 -4 6 -25 l1 -36 -45 0 c-41 0 -45 2 -45 24
0 13 6 24 13 24 8 0 7 4 -3 10 -12 8 -11 10 8 10 16 0 22 -6 23 -22z m154 -8
c7 0 16 8 18 18 3 9 5 -1 5 -23 0 -22 -2 -32 -5 -22 -2 9 -11 17 -18 17 -7 0
-16 -8 -18 -17 -3 -10 -5 0 -5 22 0 22 2 32 5 23 2 -10 11 -18 18 -18z m340
10 c25 4 45 6 46 6 5 -6 3 -56 -3 -56 -4 0 -9 10 -9 23 l-2 22 -4 -23 c-4 -20
-10 -22 -44 -20 -38 2 -39 3 -38 37 1 20 3 29 6 20 3 -13 12 -14 48 -9z m92
-32 c-2 -13 -4 -5 -4 17 -1 22 1 32 4 23 2 -10 2 -28 0 -40z m33 27 c0 -14 -4
-25 -10 -25 -5 0 -10 11 -10 25 0 14 5 25 10 25 6 0 10 -11 10 -25z m-1823
-32 c-3 -10 -5 -4 -5 12 0 17 2 24 5 18 2 -7 2 -21 0 -30z m35 30 c-9 -3 -10
-9 -2 -18 11 -13 4 -45 -11 -45 -11 0 -7 23 6 32 6 5 5 8 -2 8 -7 0 -13 7 -13
15 0 8 8 15 18 14 11 0 12 -2 4 -6z m148 -3 c-10 -6 -11 -10 -2 -10 6 0 12 -7
12 -15 0 -8 -8 -15 -17 -15 -14 0 -15 2 -4 9 9 6 10 11 2 15 -17 11 -13 26 7
26 14 0 15 -2 2 -10z m58 -18 c3 -17 -2 -22 -17 -22 -12 0 -21 6 -21 15 0 8 6
15 13 15 8 0 7 4 -3 11 -12 8 -12 10 5 7 12 -2 21 -12 23 -26z m175 15 c23 14
55 13 61 -2 3 -10 -1 -15 -12 -15 -15 0 -15 -2 -2 -10 13 -8 13 -10 -2 -10 -9
0 -22 8 -27 18 -10 16 -10 16 -11 0 0 -10 -4 -18 -9 -18 -10 0 -21 25 -20 43
0 8 2 8 6 -1 2 -6 10 -9 16 -5z m117 -3 c0 13 7 17 27 14 30 -3 44 -28 16 -29
-16 0 -16 -1 2 -9 19 -8 19 -9 -2 -9 -17 -1 -23 5 -24 22 -1 19 -3 17 -15 -10
-8 -18 -19 -33 -26 -33 -9 0 -9 3 -1 11 8 8 9 20 2 38 -9 24 -8 25 6 7 14 -18
15 -18 15 -2z m107 -14 l3 -25 -11 25 -12 25 -7 -25 -8 -25 -1 28 c-1 22 3 28
17 25 10 -2 18 -14 19 -28z m20 -7 c-3 -10 -5 -4 -5 12 0 17 2 24 5 18 2 -7 2
-21 0 -30z m170 0 c-3 -10 -5 -4 -5 12 0 17 2 24 5 18 2 -7 2 -21 0 -30z m273
22 c0 -8 -8 -15 -17 -16 -15 0 -15 -2 2 -9 16 -7 17 -9 3 -9 -21 -1 -32 15
-24 34 7 20 36 19 36 0z m167 -22 c-3 -10 -5 -4 -5 12 0 17 2 24 5 18 2 -7 2
-21 0 -30z m161 20 c2 -7 -5 -13 -15 -14 -16 0 -16 -1 2 -9 19 -8 19 -9 -2 -9
-18 -1 -23 5 -23 25 0 18 5 25 17 22 9 -2 18 -9 21 -15z m50 -11 c2 -12 -1
-22 -7 -22 -6 0 -11 10 -12 23 -1 21 -1 21 -9 -3 l-8 -25 -1 28 c-1 22 3 28
17 25 9 -2 18 -13 20 -26z m22 18 c0 -6 8 -5 20 2 17 11 22 10 30 -2 6 -10 10
-11 10 -2 0 6 9 12 20 12 15 0 20 -6 19 -27 l-1 -28 -8 25 -7 25 -11 -25 c-6
-14 -11 -19 -11 -12 -1 6 -9 12 -18 12 -15 0 -16 -2 -3 -10 10 -6 6 -9 -17 -8
-25 1 -32 6 -36 24 -2 13 0 24 4 24 5 0 9 -5 9 -10z m267 -27 c-3 -10 -5 -4
-5 12 0 17 2 24 5 18 2 -7 2 -21 0 -30z m3774 -100 c-5 -37 -6 -37 -9 -8 -2
16 -9 33 -15 37 -8 5 -4 8 8 8 18 0 20 -5 16 -37z m145 -6 c13 5 13 7 2 14
-10 7 -9 9 5 9 12 0 17 -8 17 -25 0 -20 -4 -24 -25 -23 -22 2 -25 7 -24 38 2
29 3 30 6 8 3 -19 9 -25 19 -21z m165 34 c-12 -8 -12 -12 2 -26 16 -15 17 -15
18 2 0 14 3 12 11 -7 l11 -25 7 25 8 25 1 -26 c1 -24 -2 -26 -46 -26 -27 0
-40 2 -30 4 19 5 22 18 7 28 -17 10 -11 35 8 35 14 0 14 -2 3 -9z m256 -11
c-3 -10 0 -21 6 -23 18 -6 -3 -27 -26 -27 -13 0 -17 3 -11 8 6 4 11 16 11 27
0 11 -5 23 -11 27 -6 5 -1 8 13 8 18 0 22 -4 18 -20z m113 5 c0 -8 6 -12 13
-10 7 3 12 -4 12 -18 0 -22 -5 -24 -47 -26 -26 -1 -49 3 -52 8 -9 14 4 41 20
41 8 0 14 5 14 10 0 6 9 10 20 10 11 0 20 -7 20 -15z m-630 -15 c0 -5 -7 -7
-15 -4 -10 4 -15 0 -15 -11 0 -11 5 -15 15 -11 8 3 15 1 15 -4 0 -13 -27 -13
-35 0 -10 16 2 40 20 40 8 0 15 -4 15 -10z m57 -6 c5 -13 -33 -62 -42 -53 -4
5 -8 39 -6 57 2 17 40 15 48 -4z m142 -11 l-1 -28 -8 25 -8 25 -8 -25 -8 -25
-7 25 c-7 24 -7 24 -8 3 -1 -31 -21 -29 -21 2 0 22 4 25 35 25 32 0 35 -3 34
-27z m153 2 c-2 -14 -8 -25 -13 -25 -5 0 -9 11 -9 25 0 14 6 25 14 25 9 0 12
-8 8 -25z m52 10 c3 -10 -1 -15 -12 -15 -15 0 -15 -2 -2 -10 13 -8 13 -10 -2
-10 -21 0 -30 13 -22 34 8 20 30 21 38 1z m-457 -114 c-17 -6 -17 -8 -3 -20
23 -20 20 -41 -6 -40 -17 1 -19 2 -5 6 21 6 22 12 0 28 -19 14 -10 35 15 34
15 0 15 -1 -1 -8z m621 2 c-22 -6 -23 -12 -1 -28 20 -15 9 -35 -20 -34 -17 1
-18 2 -4 6 18 5 24 23 7 23 -5 0 -10 9 -10 20 0 14 6 20 23 19 16 -1 18 -2 5
-6z m135 0 c-7 -2 -19 -2 -25 0 -7 3 -2 5 12 5 14 0 19 -2 13 -5z m140 0 c-7
-2 -19 -2 -25 0 -7 3 -2 5 12 5 14 0 19 -2 13 -5z m-833 -23 c0 -5 -7 -7 -15
-4 -10 4 -15 0 -15 -11 0 -11 5 -15 15 -11 8 3 15 1 15 -4 0 -13 -27 -13 -35
0 -10 16 2 40 20 40 8 0 15 -4 15 -10z m49 -17 l-1 -28 -8 25 -8 25 -7 -23
c-6 -17 -10 -20 -15 -11 -12 18 0 39 21 39 14 0 19 -7 18 -27z m81 2 c0 -18
-5 -25 -20 -25 -15 0 -20 7 -20 25 0 18 5 25 20 25 15 0 20 -7 20 -25z m33 8
c9 24 54 22 67 -3 6 -11 16 -20 23 -20 7 0 6 4 -3 10 -13 9 -13 10 0 10 13 0
13 1 0 10 -13 8 -12 10 3 10 11 0 17 -8 17 -24 0 -21 -5 -25 -30 -24 -23 1
-30 6 -31 22 -2 20 -2 20 -6 -1 -5 -27 -20 -30 -26 -5 -3 13 -6 10 -11 -10
-11 -39 -21 -35 -23 10 -1 25 1 31 6 18 7 -17 8 -18 14 -3z m156 -10 l-1 -28
-8 25 -7 25 -11 -25 -11 -25 0 28 c-1 21 4 27 19 27 15 0 20 -6 19 -27z m80 0
l-1 -28 -8 25 -8 25 -8 -25 -8 -25 -7 25 -6 25 -11 -25 -11 -25 0 28 c-1 24 2
27 34 27 32 0 35 -3 34 -27z m64 20 c-7 -3 -13 -11 -13 -18 0 -7 6 -16 13 -18
6 -3 -3 -6 -20 -6 -23 -1 -33 4 -33 14 0 8 8 15 18 16 14 0 14 2 -3 9 -16 6
-13 8 15 7 19 0 29 -2 23 -4z m208 -15 l2 -23 4 23 c6 31 23 28 23 -4 0 -23
-4 -26 -24 -22 -15 3 -27 0 -30 -8 -3 -8 -16 -14 -28 -13 -22 0 -22 1 -3 9 17
7 17 9 3 9 -12 1 -18 9 -18 26 0 22 4 25 35 25 29 0 35 -4 36 -22z m87 -5 c2
-13 -1 -23 -7 -23 -6 0 -12 10 -12 23 l-2 22 -4 -22 c-6 -31 -23 -29 -23 3 0
21 4 25 23 22 14 -2 23 -11 25 -25z m132 14 c0 -9 2 -9 8 0 10 16 84 12 90 -4
2 -7 -4 -13 -15 -13 -14 0 -15 -2 -4 -9 9 -6 1 -9 -25 -9 -21 0 -42 5 -46 11
-6 9 -8 9 -8 0 0 -20 -20 -15 -21 5 -1 14 -2 14 -6 1 -2 -10 -15 -16 -33 -17
-32 -1 -45 11 -37 32 7 18 97 20 97 3z m-6896 -123 c13 -12 16 -39 16 -126 0
-149 1 -148 -143 -148 -148 0 -147 -1 -147 143 0 148 -1 147 146 147 89 0 116
-3 128 -16z m5956 -6 c0 -17 3 -19 9 -10 6 10 10 8 16 -10 l7 -23 8 25 8 25 1
-26 c1 -24 -2 -26 -44 -27 -45 0 -45 0 -45 34 0 27 4 34 20 34 14 0 20 -7 20
-22z m116 2 c9 0 14 -10 13 -27 l-1 -28 -8 25 -7 25 -11 -25 c-10 -23 -11 -22
-11 15 1 22 3 34 6 28 2 -7 11 -13 19 -13z m89 9 c-4 -6 0 -9 11 -7 15 2 18
-2 16 -20 -3 -21 -2 -22 17 -10 14 9 17 14 8 20 -8 5 -7 8 6 8 11 0 17 -8 17
-24 0 -21 -5 -25 -30 -24 -22 1 -30 6 -30 20 0 26 -20 22 -21 -4 -1 -22 -1
-22 -8 2 -9 28 -4 50 11 50 5 0 6 -5 3 -11z m193 -24 c0 -29 -4 -35 -21 -35
-18 0 -20 2 -7 11 12 9 13 12 1 16 -11 5 -11 7 0 14 12 8 11 11 -1 19 -12 8
-11 10 7 10 17 0 21 -6 21 -35z m82 -1 c0 -31 -3 -35 -22 -32 -30 4 -37 38 -9
45 12 3 21 9 21 14 0 5 2 9 5 9 3 0 5 -16 5 -36z m30 26 c0 -5 8 -10 17 -10
13 0 14 -3 5 -12 -8 -8 -8 -15 -2 -24 8 -8 4 -11 -15 -11 -22 0 -25 4 -25 33
0 19 5 34 10 34 6 0 10 -4 10 -10z m-332 -38 c3 -17 -2 -22 -17 -22 -25 0 -29
30 -3 31 15 0 14 2 -3 10 l-20 9 20 -3 c12 -1 21 -11 23 -25z m-5943 -9 l7
-28 10 28 c16 44 38 34 38 -18 0 -45 -19 -66 -21 -22 l0 22 -9 -22 c-5 -13
-13 -23 -18 -23 -5 0 -14 10 -20 23 l-11 22 0 -22 c-2 -44 -21 -23 -21 22 0
37 3 45 19 45 12 0 21 -10 26 -27z m205 9 c0 -16 7 -18 53 -14 28 1 54 7 55
13 4 11 32 12 33 2 5 -55 3 -73 -11 -71 -8 2 -17 14 -21 28 -4 14 -7 19 -8 13
-1 -7 -10 -13 -22 -13 -12 0 -17 -4 -14 -11 4 -6 13 -8 21 -5 8 3 14 1 14 -4
0 -13 -83 -10 -92 4 -5 8 -8 7 -8 -1 0 -7 -4 -13 -10 -13 -5 0 -10 12 -10 26
0 31 -23 28 -28 -4 -5 -33 -22 -26 -22 8 0 25 4 30 25 30 16 0 25 6 25 15 0 8
5 15 10 15 6 0 10 -8 10 -18z m210 -27 c0 -25 -4 -45 -10 -45 -5 0 -10 20 -10
45 0 25 5 45 10 45 6 0 10 -20 10 -45z m150 0 c0 -43 -1 -45 -30 -45 -26 0
-30 4 -30 26 0 17 6 28 20 31 11 3 20 12 20 19 0 8 5 14 10 14 6 0 10 -20 10
-45z m40 35 c0 -5 -7 -10 -15 -10 -8 0 -15 5 -15 10 0 6 7 10 15 10 8 0 15 -4
15 -10z m80 0 c0 -5 -4 -10 -10 -10 -5 0 -10 5 -10 10 0 6 5 10 10 10 6 0 10
-4 10 -10z m140 0 c0 -5 -4 -10 -10 -10 -5 0 -10 5 -10 10 0 6 5 10 10 10 6 0
10 -4 10 -10z m86 -1 c4 -8 9 -8 17 0 20 20 28 11 11 -14 -16 -24 -15 -25 5
-25 14 0 21 -6 21 -20 0 -26 -40 -28 -40 -2 -1 15 -2 15 -15 -2 -21 -28 -30
-13 -10 17 16 24 15 25 -3 20 -21 -5 -37 11 -27 27 8 13 32 13 41 -1z m121 -5
c3 -8 -4 -25 -17 -39 l-22 -23 24 -5 c18 -3 16 -5 -9 -6 -36 -1 -44 17 -18 39
8 7 15 19 15 27 0 9 -6 13 -15 9 -8 -3 -15 -1 -15 4 0 16 50 11 57 -6z m51 9
c-21 -5 -24 -23 -4 -23 19 0 29 -30 15 -46 -13 -16 -49 -19 -49 -4 0 5 7 7 15
4 10 -4 15 0 15 15 0 12 -6 21 -15 21 -8 0 -15 9 -15 20 0 15 6 20 28 19 16
-1 20 -3 10 -6z m-960 -56 c3 -26 1 -28 -24 -25 -35 4 -42 24 -12 34 22 7 22
7 3 15 -18 8 -17 8 5 6 19 -1 26 -8 28 -30z m370 1 c2 -20 -1 -28 -12 -28 -10
0 -17 10 -17 28 l-2 27 -4 -27 c-6 -38 -23 -35 -23 3 0 27 3 30 28 27 21 -2
28 -9 30 -30z m112 2 c0 -20 -5 -30 -15 -30 -10 0 -15 10 -15 30 0 20 5 30 15
30 10 0 15 -10 15 -30z m80 0 c0 -16 -4 -30 -10 -30 -5 0 -10 11 -10 25 0 16
-6 25 -15 25 -9 0 -15 -9 -15 -25 0 -14 -4 -25 -10 -25 -5 0 -10 14 -10 30 0
28 3 30 35 30 32 0 35 -2 35 -30z m108 -2 c2 -20 -1 -28 -12 -28 -10 0 -17 10
-17 28 l-2 27 -4 -27 c-5 -35 -23 -37 -23 -3 0 14 -4 25 -10 25 -5 0 -10 -11
-10 -25 0 -14 -4 -25 -10 -25 -5 0 -10 14 -10 31 0 30 1 30 48 27 43 -3 47 -5
50 -30z m32 2 c0 -16 -4 -30 -10 -30 -5 0 -10 14 -10 30 0 17 5 30 10 30 6 0
10 -13 10 -30z m-837 -97 c-7 -2 -14 -19 -14 -36 l-2 -32 -4 30 c-3 16 -10 33
-16 37 -7 4 2 7 18 7 17 0 24 -3 18 -6z m44 1 c-3 -3 -12 -4 -19 -1 -8 3 -5 6
6 6 11 1 17 -2 13 -5z m138 -21 l7 -28 13 30 c16 37 19 29 4 -14 -14 -40 -23
-39 -36 4 -6 19 -8 35 -3 35 4 0 11 -12 15 -27z m52 -25 c-2 -13 -4 -5 -4 17
-1 22 1 32 4 23 2 -10 2 -28 0 -40z m53 27 c0 -15 -6 -25 -14 -25 -8 0 -17 -6
-19 -12 -3 -7 -6 4 -6 25 -1 31 2 37 19 37 15 0 20 -7 20 -25z m189 3 c26 4
28 2 24 -22 -5 -22 -10 -26 -34 -24 -26 2 -29 6 -28 38 1 19 3 28 6 19 3 -11
12 -14 32 -11z m144 15 c-7 -2 -13 -18 -13 -34 0 -22 -5 -29 -19 -29 -11 0
-23 5 -26 10 -3 6 -14 10 -23 10 -15 0 -15 -2 -2 -10 13 -8 13 -10 -2 -10 -21
0 -30 14 -22 35 5 11 14 15 30 11 14 -4 28 0 36 9 7 8 22 14 33 14 11 0 14 -3
8 -6z m165 -16 c14 6 15 4 4 -9 -8 -10 -9 -19 -3 -22 5 -4 13 3 16 14 4 12 14
20 23 18 22 -4 27 -28 5 -28 -15 0 -15 -2 -3 -10 10 -6 1 -8 -28 -7 -41 2 -42
2 -41 37 1 19 3 27 6 18 3 -11 10 -15 21 -11z m112 8 c0 -9 6 -12 16 -8 9 3
20 0 25 -8 6 -10 9 -10 9 -1 0 16 82 16 98 0 9 -9 12 -9 12 0 0 7 6 12 14 12
8 0 17 6 19 13 3 6 6 -5 6 -25 1 -36 0 -37 -34 -36 -28 1 -35 5 -36 22 -2 20
-2 19 -6 -1 -3 -14 -12 -23 -23 -23 -11 0 -20 9 -23 23 -4 22 -4 22 -15 -3 -6
-14 -11 -19 -11 -12 -1 6 -9 12 -18 12 -14 0 -15 -2 -4 -9 9 -6 -1 -9 -28 -9
-34 -1 -41 3 -41 19 0 26 3 35 13 32 4 -2 7 2 7 7 0 6 5 10 10 10 6 0 10 -7
10 -15z m318 -8 c11 0 24 -10 27 -22 6 -19 7 -19 15 5 l8 25 1 -26 c1 -24 -2
-26 -44 -27 l-45 0 0 36 c0 24 3 32 9 24 4 -7 17 -14 29 -15z m149 17 c-3 -3
-12 -4 -19 -1 -8 3 -5 6 6 6 11 1 17 -2 13 -5z m41 -17 c14 5 15 3 5 -7 -9
-10 -9 -17 -2 -26 8 -10 5 -12 -10 -11 -17 1 -21 8 -20 37 1 19 3 27 6 18 3
-11 10 -15 21 -11z m172 13 c-10 -6 -11 -10 -2 -10 6 0 12 -11 12 -25 0 -22
-4 -25 -35 -25 -26 0 -35 4 -35 17 0 22 31 52 55 52 17 1 17 -1 5 -9z m195
-10 c8 0 19 -9 25 -20 6 -11 16 -20 23 -20 7 0 6 4 -3 10 -13 9 -13 10 0 10
13 0 13 1 0 10 -13 8 -12 10 3 10 11 0 17 -8 17 -24 0 -22 -4 -24 -45 -24
l-45 0 1 36 c0 21 3 31 6 25 2 -7 11 -13 18 -13z m122 -32 c-2 -13 -4 -5 -4
17 -1 22 1 32 4 23 2 -10 2 -28 0 -40z m103 18 c0 -34 0 -34 -45 -34 -32 0
-45 4 -45 14 0 8 6 14 13 14 8 0 7 4 -3 10 -13 9 -13 10 1 10 8 0 20 -5 27
-12 9 -9 12 -9 12 0 0 7 7 12 15 12 8 0 15 5 15 10 0 6 2 10 5 10 3 0 5 -15 5
-34z m5050 -11 l0 -35 775 0 c768 0 775 0 775 -20 0 -20 -7 -20 -775 -20
l-775 0 0 -35 0 -35 -55 0 -55 0 0 35 0 35 -670 0 c-663 0 -670 0 -670 20 0
20 7 20 670 20 l670 0 0 35 0 35 55 0 55 0 0 -35z m-7002 5 l11 25 0 -27 c1
-22 -4 -28 -19 -28 -15 0 -20 6 -19 28 l1 27 8 -25 7 -25 11 25z m90 -8 c2
-12 -1 -22 -7 -22 -6 0 -11 10 -12 23 -1 21 -1 21 -8 -3 l-7 -25 -8 25 -8 25
-8 -25 -8 -25 -1 27 c-1 25 2 28 32 25 24 -2 33 -8 35 -25z m215 20 c4 9 6 9
6 -2 1 -17 -16 -47 -22 -40 -3 3 -8 16 -12 30 -7 22 -6 23 8 12 12 -10 16 -10
20 0z m55 -9 c2 -7 -5 -13 -15 -14 -16 0 -16 -1 2 -9 19 -8 19 -9 -2 -9 -18
-1 -23 5 -23 25 0 18 5 25 17 22 9 -2 18 -9 21 -15z m219 -20 c-3 -10 -5 -4
-5 12 0 17 2 24 5 18 2 -7 2 -21 0 -30z m83 17 c6 -11 16 -20 23 -20 7 0 6 4
-3 10 -13 9 -13 10 0 10 13 0 13 1 0 10 -13 8 -12 10 3 10 12 0 17 -8 17 -25
0 -22 -4 -25 -32 -23 -18 1 -33 -3 -36 -10 -8 -25 -22 -11 -22 23 0 28 4 35
20 35 10 0 24 -9 30 -20z m438 3 c2 -7 -5 -13 -15 -14 -16 0 -16 -1 2 -9 19
-8 19 -9 -2 -9 -18 -1 -23 5 -23 25 0 18 5 25 17 22 9 -2 18 -9 21 -15z m163
3 c0 10 3 14 5 8 6 -14 -13 -64 -23 -64 -5 0 -8 16 -9 36 -1 33 1 35 13 18 12
-17 13 -17 14 2z m39 -26 c5 0 11 10 13 23 4 19 4 18 6 -5 1 -22 -4 -28 -19
-28 -15 0 -20 6 -19 28 2 23 2 24 6 5 2 -13 8 -23 13 -23z m107 3 c-3 -10 -5
-4 -5 12 0 17 2 24 5 18 2 -7 2 -21 0 -30z m52 10 l-1 -28 -8 25 -7 25 -11
-25 -11 -25 0 28 c-1 21 4 27 19 27 15 0 20 -6 19 -27z m103 2 c-2 -14 -6 -25
-8 -25 -2 0 -4 11 -4 25 0 14 4 25 9 25 4 0 6 -11 3 -25z m25 -12 c-3 -10 -5
-4 -5 12 0 17 2 24 5 18 2 -7 2 -21 0 -30z m80 7 l3 -25 -11 25 -12 25 -7 -25
-7 -25 -5 25 -5 25 -11 -25 -11 -25 0 28 c-1 26 2 28 32 25 26 -2 32 -8 34
-28z m155 23 c-10 -4 -10 -8 -1 -19 13 -16 5 -44 -13 -44 -9 0 -8 3 2 10 13 9
13 10 0 10 -13 0 -13 1 0 10 10 6 11 10 3 10 -7 0 -13 7 -13 15 0 8 8 15 18
14 11 0 12 -2 4 -6z m145 -30 c-3 -10 -5 -4 -5 12 0 17 2 24 5 18 2 -7 2 -21
0 -30z m-1987 -382 c0 -5 -9 -7 -20 -4 -27 7 -26 -11 2 -29 28 -19 18 -48 -17
-48 -14 0 -25 5 -25 11 0 5 5 7 10 4 6 -3 15 -3 21 1 8 5 4 13 -11 24 -29 22
-21 50 15 50 14 0 25 -4 25 -9z m448 -15 c-5 -27 11 -40 39 -29 15 6 15 7 -3
15 -16 6 -15 7 6 5 19 -1 26 -9 28 -28 3 -26 2 -27 -62 -27 l-66 -1 0 45 c0
43 1 44 31 44 28 0 31 -3 27 -24z m102 5 c0 -14 5 -18 19 -14 15 4 18 0 14
-21 -3 -15 -1 -26 6 -26 6 0 11 11 11 25 0 14 5 25 10 25 6 0 10 -13 10 -30 0
-25 -4 -30 -23 -30 -13 0 -28 5 -35 12 -9 9 -12 9 -12 0 0 -7 -4 -12 -10 -12
-5 0 -10 20 -10 45 0 25 5 45 10 45 6 0 10 -9 10 -19z m268 -3 l11 -23 0 23
c1 13 7 22 16 22 11 0 15 -12 15 -45 0 -53 -21 -61 -44 -17 l-15 27 -1 -27 c0
-16 -4 -28 -10 -28 -5 0 -10 20 -10 45 0 50 19 61 38 23z m192 -23 c0 -25 -4
-45 -10 -45 -5 0 -10 20 -10 45 0 25 5 45 10 45 6 0 10 -20 10 -45z m-39 28
c5 -48 2 -73 -7 -73 -12 0 -23 48 -16 68 4 13 22 16 23 5z m-941 -39 c0 -14 4
-23 10 -19 6 3 10 15 10 26 0 10 5 19 10 19 6 0 10 -13 10 -30 0 -27 -3 -30
-30 -30 -27 0 -30 3 -30 30 0 17 5 30 10 30 6 0 10 -12 10 -26z m110 -4 c0
-16 -4 -30 -10 -30 -5 0 -10 12 -10 26 0 14 -4 23 -10 19 -5 -3 -10 -15 -10
-26 0 -10 -4 -19 -10 -19 -5 0 -10 14 -10 30 0 27 3 30 30 30 27 0 30 -3 30
-30z m41 3 l2 -28 4 28 c4 26 33 40 33 15 0 -9 3 -9 12 0 7 7 27 12 45 12 29
0 33 -3 34 -27 l2 -28 4 28 c6 37 33 36 33 -2 l0 -30 -97 2 -98 2 -3 28 c-2
19 1 27 12 27 10 0 17 -10 17 -27z m549 -3 c0 -16 -4 -30 -10 -30 -5 0 -10 12
-10 26 0 14 -4 23 -10 19 -5 -3 -10 -15 -10 -26 0 -30 -20 -22 -21 9 l-2 27
-4 -27 c-6 -39 -33 -37 -33 2 0 29 1 30 50 30 49 0 50 -1 50 -30z m195 0 c0
-18 -6 -26 -23 -28 -24 -4 -38 18 -28 44 3 9 15 14 28 12 17 -2 23 -10 23 -28z
m153 -2 c3 -25 0 -28 -27 -28 -34 0 -43 23 -14 34 15 6 15 8 3 17 -12 8 -9 9
10 7 19 -2 26 -10 28 -30z m82 2 c0 -16 -4 -30 -10 -30 -5 0 -10 12 -10 26 0
31 -23 28 -28 -4 -5 -33 -22 -26 -22 8 0 28 3 30 35 30 32 0 35 -2 35 -30z
m-1482 -5 c16 -35 16 -35 -18 -35 -16 0 -30 2 -30 5 0 11 24 55 30 55 4 0 12
-11 18 -25z"/>
<path d="M8988 5823 c7 -3 16 -2 19 1 4 3 -2 6 -13 5 -11 0 -14 -3 -6 -6z"/>
<path d="M1390 5734 c0 -8 5 -12 10 -9 6 3 10 10 10 16 0 5 -4 9 -10 9 -5 0
-10 -7 -10 -16z"/>
<path d="M2365 5747 c-4 -10 -5 -21 -1 -24 10 -10 18 4 13 24 -4 17 -4 17 -12
0z"/>
<path d="M3700 5740 c0 -19 3 -21 12 -12 9 9 9 15 0 24 -9 9 -12 7 -12 -12z"/>
<path d="M1600 5730 c0 -5 7 -10 16 -10 8 0 12 5 9 10 -3 6 -10 10 -16 10 -5
0 -9 -4 -9 -10z"/>
<path d="M2680 5740 c0 -19 3 -21 12 -12 9 9 9 15 0 24 -9 9 -12 7 -12 -12z"/>
<path d="M2745 5750 c-4 -6 -3 -16 3 -22 6 -6 12 -6 17 2 4 6 3 16 -3 22 -6 6
-12 6 -17 -2z"/>
<path d="M2935 5750 c-4 -6 -3 -16 3 -22 6 -6 12 -6 17 2 4 6 3 16 -3 22 -6 6
-12 6 -17 -2z"/>
<path d="M8300 5575 c0 -33 2 -35 34 -35 35 0 46 13 46 51 0 16 -7 19 -40 19
-39 0 -40 -1 -40 -35z"/>
<path d="M8343 5464 c11 -11 57 -13 63 -3 3 5 -12 9 -32 9 -21 0 -34 -3 -31
-6z"/>
<path d="M9520 5608 c0 -10 -7 -18 -15 -18 -10 0 -15 -11 -15 -35 0 -34 1 -35
40 -35 39 0 40 1 40 35 0 20 -5 35 -11 35 -7 0 -18 8 -25 18 -13 16 -13 16
-14 0z"/>
<path d="M1310 5439 c0 -24 23 -21 28 4 2 10 -3 17 -12 17 -10 0 -16 -9 -16
-21z"/>
<path d="M1445 5410 c-3 -5 1 -10 9 -10 9 0 16 5 16 10 0 6 -4 10 -9 10 -6 0
-13 -4 -16 -10z"/>
<path d="M1740 5370 c0 -5 4 -10 9 -10 6 0 13 5 16 10 3 6 -1 10 -9 10 -9 0
-16 -4 -16 -10z"/>
<path d="M2260 5410 c0 -5 7 -10 16 -10 8 0 12 5 9 10 -3 6 -10 10 -16 10 -5
0 -9 -4 -9 -10z"/>
<path d="M6890 5294 c0 -8 5 -12 10 -9 6 4 8 11 5 16 -9 14 -15 11 -15 -7z"/>
<path d="M7100 5250 c0 -5 5 -10 10 -10 6 0 10 5 10 10 0 6 -4 10 -10 10 -5 0
-10 -4 -10 -10z"/>
<path d="M8540 5185 c0 -8 -7 -15 -15 -15 -10 0 -15 -11 -15 -35 0 -35 0 -35
45 -35 45 0 45 0 45 35 0 24 -5 35 -15 35 -8 0 -15 7 -15 15 0 8 -7 15 -15 15
-8 0 -15 -7 -15 -15z"/>
<path d="M8630 5178 c0 -4 6 -8 14 -8 8 0 17 4 20 8 2 4 -4 8 -15 8 -10 0 -19
-4 -19 -8z"/>
<path d="M9118 5179 c-10 -10 -18 -32 -18 -49 0 -28 2 -30 40 -30 39 0 40 1
40 35 0 28 4 35 20 35 11 0 20 5 20 10 0 6 -13 10 -29 10 -16 0 -35 2 -43 4
-7 2 -21 -4 -30 -15z"/>
<path d="M9068 5043 c12 -2 30 -2 40 0 9 3 -1 5 -23 4 -22 0 -30 -2 -17 -4z"/>
<path d="M9228 5033 c7 -3 16 -2 19 1 4 3 -2 6 -13 5 -11 0 -14 -3 -6 -6z"/>
<path d="M1280 5125 c0 -29 3 -36 18 -33 11 2 17 13 17 33 0 20 -6 31 -17 33
-15 3 -18 -4 -18 -33z"/>
<path d="M1604 5119 c-10 -17 13 -36 27 -22 12 12 4 33 -11 33 -5 0 -12 -5
-16 -11z"/>
<path d="M3927 5123 c-13 -12 -7 -33 8 -33 8 0 15 9 15 20 0 20 -11 26 -23 13z"/>
<path d="M4427 5123 c-13 -12 -7 -33 8 -33 8 0 15 9 15 20 0 20 -11 26 -23 13z"/>
<path d="M4804 5119 c-10 -17 13 -36 27 -22 12 12 4 33 -11 33 -5 0 -12 -5
-16 -11z"/>
<path d="M5520 5110 c0 -13 5 -20 13 -17 6 2 12 10 12 17 0 7 -6 15 -12 18 -8
2 -13 -5 -13 -18z"/>
<path d="M1494 5119 c-10 -17 13 -36 27 -22 12 12 4 33 -11 33 -5 0 -12 -5
-16 -11z"/>
<path d="M1750 5110 c0 -11 7 -20 15 -20 8 0 15 9 15 20 0 11 -7 20 -15 20 -8
0 -15 -9 -15 -20z"/>
<path d="M1824 5119 c-10 -17 13 -36 27 -22 12 12 4 33 -11 33 -5 0 -12 -5
-16 -11z"/>
<path d="M2084 5119 c-10 -17 13 -36 27 -22 12 12 4 33 -11 33 -5 0 -12 -5
-16 -11z"/>
<path d="M2748 5123 c7 -3 16 -2 19 1 4 3 -2 6 -13 5 -11 0 -14 -3 -6 -6z"/>
<path d="M2900 5100 c0 -5 5 -10 10 -10 6 0 10 5 10 10 0 6 -4 10 -10 10 -5 0
-10 -4 -10 -10z"/>
<path d="M3858 5123 c7 -3 16 -2 19 1 4 3 -2 6 -13 5 -11 0 -14 -3 -6 -6z"/>
<path d="M4148 5123 c7 -3 16 -2 19 1 4 3 -2 6 -13 5 -11 0 -14 -3 -6 -6z"/>
<path d="M4590 5100 c0 -5 5 -10 10 -10 6 0 10 5 10 10 0 6 -4 10 -10 10 -5 0
-10 -4 -10 -10z"/>
<path d="M4680 5100 c0 -5 5 -10 10 -10 6 0 10 5 10 10 0 6 -4 10 -10 10 -5 0
-10 -4 -10 -10z"/>
<path d="M4880 5100 c0 -5 5 -10 10 -10 6 0 10 5 10 10 0 6 -4 10 -10 10 -5 0
-10 -4 -10 -10z"/>
<path d="M4974 5119 c-10 -17 13 -36 27 -22 12 12 4 33 -11 33 -5 0 -12 -5
-16 -11z"/>
<path d="M5118 5123 c7 -3 16 -2 19 1 4 3 -2 6 -13 5 -11 0 -14 -3 -6 -6z"/>
<path d="M5350 5100 c0 -5 5 -10 10 -10 6 0 10 5 10 10 0 6 -4 10 -10 10 -5 0
-10 -4 -10 -10z"/>
<path d="M5450 5100 c0 -5 4 -10 9 -10 6 0 13 5 16 10 3 6 -1 10 -9 10 -9 0
-16 -4 -16 -10z"/>
<path d="M2057 4033 c-4 -3 -7 -15 -7 -25 0 -26 24 -17 28 10 3 21 -8 29 -21
15z"/>
<path d="M1870 4036 c0 -9 5 -16 10 -16 6 0 10 4 10 9 0 6 -4 13 -10 16 -5 3
-10 -1 -10 -9z"/>
<path d="M7636 4062 c-9 -27 3 -54 23 -50 22 5 22 62 -1 66 -9 2 -19 -5 -22
-16z"/>
<path d="M8220 4070 c0 -5 5 -10 10 -10 6 0 10 5 10 10 0 6 -4 10 -10 10 -5 0
-10 -4 -10 -10z"/>
<path d="M8220 4025 c0 -8 5 -15 10 -15 6 0 10 7 10 15 0 8 -4 15 -10 15 -5 0
-10 -7 -10 -15z"/>
<path d="M8320 4045 c0 -8 4 -15 10 -15 5 0 7 7 4 15 -4 8 -8 15 -10 15 -2 0
-4 -7 -4 -15z"/>
<path d="M8590 4050 c0 -11 4 -20 9 -20 5 0 7 9 4 20 -3 11 -7 20 -9 20 -2 0
-4 -9 -4 -20z"/>
<path d="M2160 4000 c0 -5 5 -10 10 -10 6 0 10 5 10 10 0 6 -4 10 -10 10 -5 0
-10 -4 -10 -10z"/>
<path d="M1940 3755 c0 -17 5 -25 13 -22 6 2 12 12 12 22 0 10 -6 20 -12 23
-8 2 -13 -6 -13 -23z"/>
<path d="M2024 3765 c-4 -9 -2 -21 4 -27 15 -15 44 -1 40 19 -4 23 -36 29 -44
8z"/>
<path d="M8920 3015 c0 -8 5 -15 10 -15 6 0 10 7 10 15 0 8 -4 15 -10 15 -5 0
-10 -7 -10 -15z"/>
<path d="M1240 2980 c0 -21 4 -30 13 -27 6 2 12 14 12 27 0 13 -6 25 -12 28
-9 2 -13 -7 -13 -28z"/>
<path d="M1550 2994 c0 -8 5 -12 10 -9 6 3 10 10 10 16 0 5 -4 9 -10 9 -5 0
-10 -7 -10 -16z"/>
<path d="M1840 2994 c0 -8 5 -12 10 -9 6 4 8 11 5 16 -9 14 -15 11 -15 -7z"/>
<path d="M7520 2820 c0 -5 5 -10 10 -10 6 0 10 5 10 10 0 6 -4 10 -10 10 -5 0
-10 -4 -10 -10z"/>
<path d="M7910 2645 c0 -8 5 -15 10 -15 6 0 10 7 10 15 0 8 -4 15 -10 15 -5 0
-10 -7 -10 -15z"/>
<path d="M2411 2604 c0 -11 3 -14 6 -6 3 7 2 16 -1 19 -3 4 -6 -2 -5 -13z"/>
<path d="M2545 2580 c3 -5 10 -10 16 -10 5 0 9 5 9 10 0 6 -7 10 -16 10 -8 0
-12 -4 -9 -10z"/>
<path d="M2410 2564 c0 -8 5 -12 10 -9 6 4 8 11 5 16 -9 14 -15 11 -15 -7z"/>
<path d="M2694 2579 c-3 -6 -1 -16 5 -22 8 -8 11 -5 11 11 0 24 -5 28 -16 11z"/>
<path d="M2150 2570 c0 -11 5 -20 10 -20 6 0 10 9 10 20 0 11 -4 20 -10 20 -5
0 -10 -9 -10 -20z"/>
<path d="M1463 2537 c-29 -5 -53 -13 -53 -17 0 -4 25 -11 55 -17 l55 -10 0 29
c0 15 -1 27 -2 27 -2 -1 -27 -6 -55 -12z"/>
<path d="M7590 2494 c0 -8 5 -12 10 -9 6 4 8 11 5 16 -9 14 -15 11 -15 -7z"/>
<path d="M7770 2499 c0 -5 5 -7 10 -4 6 3 10 8 10 11 0 2 -4 4 -10 4 -5 0 -10
-5 -10 -11z"/>
<path d="M7881 2474 c0 -11 3 -14 6 -6 3 7 2 16 -1 19 -3 4 -6 -2 -5 -13z"/>
<path d="M7980 2474 c0 -8 5 -12 10 -9 6 4 8 11 5 16 -9 14 -15 11 -15 -7z"/>
<path d="M8362 2485 c0 -16 2 -22 5 -12 2 9 2 23 0 30 -3 6 -5 -1 -5 -18z"/>
<path d="M8498 2463 c7 -3 16 -2 19 1 4 3 -2 6 -13 5 -11 0 -14 -3 -6 -6z"/>
<path d="M8613 2463 c9 -2 23 -2 30 0 6 3 -1 5 -18 5 -16 0 -22 -2 -12 -5z"/>
<path d="M1753 2454 c-8 -21 13 -42 28 -27 13 13 5 43 -11 43 -6 0 -13 -7 -17
-16z"/>
<path d="M1800 2434 c0 -14 3 -14 15 -4 8 7 15 14 15 16 0 2 -7 4 -15 4 -8 0
-15 -7 -15 -16z"/>
<path d="M1868 2423 c7 -3 16 -2 19 1 4 3 -2 6 -13 5 -11 0 -14 -3 -6 -6z"/>
<path d="M2730 2435 c0 -8 5 -15 10 -15 6 0 10 7 10 15 0 8 -4 15 -10 15 -5 0
-10 -7 -10 -15z"/>
<path d="M2786 2441 c-4 -7 -5 -15 -2 -18 9 -9 19 4 14 18 -4 11 -6 11 -12 0z"/>
<path d="M3120 2435 c0 -8 5 -15 10 -15 6 0 10 7 10 15 0 8 -4 15 -10 15 -5 0
-10 -7 -10 -15z"/>
<path d="M3220 2436 c0 -9 5 -16 10 -16 6 0 10 4 10 9 0 6 -4 13 -10 16 -5 3
-10 -1 -10 -9z"/>
<path d="M3660 2441 c0 -6 5 -13 10 -16 6 -3 10 -2 10 4 0 5 8 12 18 14 10 3
6 5 -10 6 -16 0 -28 -3 -28 -8z"/>
<path d="M8165 2321 c-3 -5 -1 -12 5 -16 5 -3 10 1 10 9 0 18 -6 21 -15 7z"/>
<path d="M7620 2315 c0 -8 5 -15 10 -15 6 0 10 7 10 15 0 8 -4 15 -10 15 -5 0
-10 -7 -10 -15z"/>
<path d="M7700 2175 c0 -8 5 -15 10 -15 6 0 10 7 10 15 0 8 -4 15 -10 15 -5 0
-10 -7 -10 -15z"/>
<path d="M8221 2174 c0 -11 3 -14 6 -6 3 7 2 16 -1 19 -3 4 -6 -2 -5 -13z"/>
<path d="M8411 2174 c0 -11 3 -14 6 -6 3 7 2 16 -1 19 -3 4 -6 -2 -5 -13z"/>
<path d="M8517 2184 c-8 -8 1 -24 14 -24 5 0 9 7 9 15 0 15 -12 20 -23 9z"/>
<path d="M7520 2060 c0 -5 5 -10 10 -10 6 0 10 5 10 10 0 6 -4 10 -10 10 -5 0
-10 -4 -10 -10z"/>
<path d="M7520 2030 c0 -5 5 -10 10 -10 6 0 10 5 10 10 0 6 -4 10 -10 10 -5 0
-10 -4 -10 -10z"/>
<path d="M8000 2034 c0 -8 5 -12 10 -9 6 4 8 11 5 16 -9 14 -15 11 -15 -7z"/>
<path d="M2014 1999 c-3 -6 -1 -16 5 -22 8 -8 11 -5 11 11 0 24 -5 28 -16 11z"/>
<path d="M2310 1990 c0 -11 5 -20 10 -20 6 0 10 9 10 20 0 11 -4 20 -10 20 -5
0 -10 -9 -10 -20z"/>
<path d="M1875 1980 c-3 -5 -1 -10 4 -10 6 0 11 5 11 10 0 6 -2 10 -4 10 -3 0
-8 -4 -11 -10z"/>
<path d="M2030 1875 c0 -8 5 -15 10 -15 6 0 10 7 10 15 0 8 -4 15 -10 15 -5 0
-10 -7 -10 -15z"/>
<path d="M2235 1861 c-3 -5 -1 -12 5 -16 5 -3 10 1 10 9 0 18 -6 21 -15 7z"/>
<path d="M2345 1861 c-3 -5 -1 -12 5 -16 5 -3 10 1 10 9 0 18 -6 21 -15 7z"/>
<path d="M2641 1854 c0 -11 3 -14 6 -6 3 7 2 16 -1 19 -3 4 -6 -2 -5 -13z"/>
<path d="M2840 1856 c0 -9 5 -16 10 -16 6 0 10 4 10 9 0 6 -4 13 -10 16 -5 3
-10 -1 -10 -9z"/>
<path d="M2966 1861 c-4 -5 -2 -12 3 -15 5 -4 12 -2 15 3 4 5 2 12 -3 15 -5 4
-12 2 -15 -3z"/>
<path d="M3300 1855 c0 -8 5 -15 10 -15 6 0 10 7 10 15 0 8 -4 15 -10 15 -5 0
-10 -7 -10 -15z"/>
<path d="M3536 1861 c-4 -5 -2 -12 3 -15 5 -4 12 -2 15 3 4 5 2 12 -3 15 -5 4
-12 2 -15 -3z"/>
<path d="M3740 1856 c0 -9 5 -16 10 -16 6 0 10 4 10 9 0 6 -4 13 -10 16 -5 3
-10 -1 -10 -9z"/>
<path d="M2450 1854 c0 -8 5 -12 10 -9 6 3 10 10 10 16 0 5 -4 9 -10 9 -5 0
-10 -7 -10 -16z"/>
<path d="M2210 1445 c0 -8 5 -15 10 -15 6 0 10 7 10 15 0 8 -4 15 -10 15 -5 0
-10 -7 -10 -15z"/>
<path d="M2210 1405 c0 -8 5 -15 10 -15 6 0 10 7 10 15 0 8 -4 15 -10 15 -5 0
-10 -7 -10 -15z"/>
<path d="M2285 1400 c-3 -5 -1 -10 4 -10 6 0 11 5 11 10 0 6 -2 10 -4 10 -3 0
-8 -4 -11 -10z"/>
<path d="M2050 1410 c0 -11 7 -20 15 -20 8 0 15 9 15 20 0 11 -7 20 -15 20 -8
0 -15 -9 -15 -20z"/>
<path d="M2690 1410 c0 -11 5 -20 10 -20 6 0 10 9 10 20 0 11 -4 20 -10 20 -5
0 -10 -9 -10 -20z"/>
</g>
</svg>
